<?xml version="1.0" standalone="no"?> <!DOCTYPE svg PUBLIC "-//W3C//DTD SVG 1.0//EN" "http://www.w3.org/TR/2001/REC-SVG-20010904/DTD/svg10.dtd" > <svg xmlns="http://www.w3.org/2000/svg" width="100%" height="100%">
<defs >
<font horiz-adv-x="636" ><font-face
    font-family="PRIMETIME"
    units-per-em="1000"
    panose-1="0 0 0 0 0 0 0 0 0 0"
    ascent="975"
    descent="-25"
    alphabetic="0" />
<missing-glyph horiz-adv-x="402" />
<glyph unicode=" " glyph-name="space" horiz-adv-x="320" />
<glyph unicode="!" glyph-name="exclam" horiz-adv-x="342" d="M266 198H97L87 798H275L266 198ZM181 -24Q161 -24 144 -17T114 3T94 32T86 69Q86 89 93 106T114 136T144 156T181 164Q200 164 217 157T248 137T268 107T276 69Q276 49 269 33T248 3T218 -17T181 -24Z" />
<glyph unicode="&quot;" glyph-name="quotedbl" horiz-adv-x="514" d="M421 525H315L306 819L432 818L421 525ZM221 525H115L106 819L232 818L221 525Z" />
<glyph unicode="#" glyph-name="numbersign" horiz-adv-x="949" d="M921 473L42 478L71 653L950 648L921 473ZM682 -27L496 -26L632 796L818 795L682 -27ZM302 -25L116 -24L252 798L438 797L302 -25ZM863 117L-16 122L12 297L891 292L863 117Z" />
<glyph unicode="$" glyph-name="dollar" horiz-adv-x="763" d="M444 -24V-141H340V-21Q275 -13 214 5T90 43L171 235Q213 221 254 207T340 184V343Q315 349 290 355T240 370T193 392T152 425Q101 481 101 556Q101 616 130 670T208 760Q237 781 271 793T340 810V930H444V808Q502
800 556 779T663 733Q639 695 616 657T567 582Q535 593 506 606T444 628V499Q493 488 541 469T626 420T687 348T711 248Q711 208 698 166T663 90Q645 62 621 42T568 9T508 -13T444 -24ZM340 627Q303 611 303 571Q303 553 313 542T340 523V627ZM444 316V182Q466
189 484 206T503 249Q503 274 484 291T444 316Z" />
<glyph unicode="%" glyph-name="percent" horiz-adv-x="1037" d="M767 -23Q723 -23 687 -5T624 43T583 111T568 192Q568 235 583 274T625 344T690 392T773 410Q816 410 853 392T917 344T959 275T974 194Q974 150 959 111T915 42T850 -5T767 -23ZM306 -24H109L712
777H905L306 -24ZM255 363Q212 363 176 381T113 430T72 499T57 580Q57 623 72 662T114 732T178 780T261 798Q304 798 341 780T405 731T447 662T462 582Q462 538 447 499T404 429T338 381T255 363ZM772 264Q744 264 728 243T711 196Q711 170 727 149T772 127Q799
127 816 148T833 196Q833 222 816 243T772 264ZM260 652Q233 652 216 631T199 583Q199 557 216 536T260 515Q288 515 304 536T321 583Q321 609 305 630T260 652Z" />
<glyph unicode="&amp;" glyph-name="ampersand" horiz-adv-x="830" d="M670 200Q650 151 619 110T549 39T460 -7T355 -24Q301 -24 248 -4T153 51T85 134T58 239Q58 260 62 284T75 331T96 375T124 413Q117 419 112 425T101 436Q87 450 78 465Q67 480 62 498T56
539Q56 599 85 647T161 728T263 779T374 797Q428 797 480 781T583 732L479 601Q429 632 377 632Q358 632 336 626T295 610T264 584T251 549Q251 535 262 525T292 506Q301 502 310 499T329 493Q339 489 348 486T367 478L373 342Q373 338 369 334T359 326Q355 324
352 322T347 319Q338 314 330 310T314 302Q307 297 301 294T289 285Q278 275 271 262T258 229Q256 221 256 217Q256 202 266 190T291 170T323 157T357 153Q386 153 412 166T459 200H419V345H685Q719 345 751 365T800 424L897 323Q879 283 856 259T803 222T741 205T670
200Z" />
<glyph unicode="&apos;" glyph-name="quotesingle" horiz-adv-x="324" d="M231 543L110 544L101 824L242 823L231 543Z" />
<glyph unicode="(" glyph-name="parenleft" horiz-adv-x="448" d="M298 -176Q266 -150 237 -121T183 -60Q111 34 74 145T37 374Q37 541 105 688T297 946L413 795Q323 714 272 606T221 375Q221 289 247 210T327 62Q345 38 368 17T414 -25L298 -176Z" />
<glyph unicode=")" glyph-name="parenright" horiz-adv-x="501" d="M171 -176L55 -25Q78 -5 100 16T142 62Q194 131 221 210T248 375Q248 497 197 605T55 795L172 946Q233 891 281 826T362 688T414 536T432 374Q432 256 395 145T286 -60Q261 -92 232 -121T171 -176Z" />
<glyph unicode="*" glyph-name="asterisk" horiz-adv-x="402" />
<glyph unicode="+" glyph-name="plus" horiz-adv-x="563" d="M364 283V154H213V283H79V427H213V556H364V427H499V283H364Z" />
<glyph unicode="," glyph-name="comma" horiz-adv-x="368" d="M234 -154L130 -129L150 119L288 86L234 -154Z" />
<glyph unicode="-" glyph-name="hyphen" horiz-adv-x="809" d="M307 246V378H658V246H307Z" />
<glyph unicode="." glyph-name="period" horiz-adv-x="502" d="M325 -24Q306 -24 289 -17T258 2T238 31T230 68Q230 87 237 104T258 134T288 154T325 161Q344 161 361 154T392 134T412 104T420 68Q420 29 392 3T325 -24Z" />
<glyph unicode="/" glyph-name="slash" horiz-adv-x="773" d="M229 -24H-17L597 776H840L229 -24Z" />
<glyph unicode="0" glyph-name="zero" horiz-adv-x="988" d="M988 435Q988 432 988 424T986 408T984 391T983 379Q981 367 978 355T972 331Q950 249 904 182T795 66T655 -10T493 -37Q387 -37 296 3T138 113T34 276T0 474Q2 475 2 478Q4 541 21 598T71 709Q82 728
99 751T136 796T178 836T220 865L221 869H225L227 872Q230 874 233 875T240 878Q246 882 251 885T262 893Q276 901 291 907T322 919Q363 935 405 942T492 950Q588 950 678 915T838 811Q861 788 882 763T920 708Q925 699 929 689T938 670Q941 664 944 659T950 648Q958
632 962 616T972 582Q982 543 985 510T988 435ZM754 677Q719 674 684 674T613 675H586Q574 639 565 603T543 530Q549 529 555 529T567 530Q576 530 581 528V204H726V363H836Q844 396 854 428T873 495H726Q727 500 727 505T726 516Q726 519 726 522T728 528H851Q860
568 872 607T895 686H757Q752 684 754 677ZM134 670Q125 635 114 600T95 530Q101 529 107 529T119 530Q122 530 125 530T132 528V204H277V329Q277 340 277 350T279 372Q293 371 307 371T335 372Q343 372 351 372T369 370V206Q383 204 397 204T425 204Q447 204 469
204T514 204V675Q491 674 469 675T425 676Q396 676 369 673V521H277Q277 544 277 568T278 615Q278 645 275 675H138Q136 675 136 673T134 670ZM562 -63Q560 -67 560 -71T556 -79Q553 -79 550 -78T543 -77Q541 -77 540 -78Q543 -83 549 -84T560 -89Q563 -94 563
-100Q563 -107 560 -113Q552 -120 539 -120Q530 -120 521 -117V-115Q521 -110 522 -107T525 -98Q529 -99 532 -100T540 -102H543Q543 -97 538 -96T529 -94Q526 -89 523 -87T519 -78Q519 -68 529 -64T547 -60Q554 -60 562 -63ZM184 -61H221V-62Q222 -67 220 -70T218
-79Q215 -80 212 -80T206 -79Q202 -79 201 -81Q203 -84 208 -84T217 -83H220Q219 -88 217 -91T216 -100H201V-120H191Q184 -120 182 -118L183 -82Q183 -81 179 -79Q181 -74 181 -70T184 -61ZM246 -61Q246 -67 246 -73T245 -85Q245 -95 249 -102H252Q257 -102 257
-96T257 -86V-61H267Q273 -61 275 -63L276 -81Q276 -94 273 -107T252 -120Q241 -120 231 -111Q229 -103 229 -97T229 -82Q229 -80 227 -80T223 -79Q225 -74 226 -70T229 -61H246ZM301 -63Q301 -72 301 -81T301 -100Q302 -102 305 -102T311 -102H313Q311 -107 310
-111T307 -120H283V-82Q283 -80 281 -80T277 -79Q279 -75 280 -71T283 -61H293Q299 -61 301 -63ZM335 -61Q335 -71 335 -80T335 -100Q335 -102 338 -102T344 -102H346V-104Q347 -109 345 -112T342 -120Q338 -120 335 -120T327 -121Q320 -121 316 -118L317 -83Q317
-79 313 -79Q315 -74 315 -70T318 -61H335ZM367 -61H385Q387 -67 389 -72T393 -85Q398 -81 399 -74T402 -61H421Q418 -76 413 -91T402 -120H387Q382 -106 377 -91T367 -61ZM424 -61H463Q461 -66 460 -70T458 -79Q456 -80 453 -80T448 -79Q444 -79 443 -81Q445 -84
450 -84T459 -83H462Q461 -87 460 -90T458 -98H443Q445 -101 450 -100T459 -100H462V-101Q462 -106 460 -110T456 -120H424V-81Q424 -79 422 -79T419 -79Q421 -75 422 -71T424 -61ZM514 -84Q514 -89 513 -94T506 -102Q506 -107 510 -110T514 -119V-120Q511 -121
506 -121Q500 -121 495 -119T489 -109Q487 -110 487 -112T487 -116Q487 -120 486 -120H469V-82Q469 -80 467 -80T465 -78Q465 -73 467 -70T471 -61H479Q493 -60 503 -63T514 -84ZM488 -89H490Q496 -89 495 -83V-81Q493 -81 492 -80T489 -79H488V-89ZM586 -61V-120H569L570
-82Q570 -80 568 -80T564 -79Q566 -74 567 -70T569 -61H586ZM614 -63Q616 -61 622 -61Q627 -61 632 -63T642 -68Q647 -76 651 -89Q649 -100 643 -110T623 -120Q609 -120 601 -111T592 -87Q592 -78 599 -71T614 -63ZM629 -81Q625 -79 621 -79Q617 -79 614 -81T610
-89Q610 -102 624 -102H625Q632 -97 632 -90Q632 -86 629 -81ZM674 -61Q677 -66 680 -70T685 -79Q687 -78 687 -74T687 -66Q687 -62 689 -61H705V-120H690Q686 -115 683 -109T676 -96Q673 -99 673 -105T674 -117V-120H657V-82Q657 -80 655 -80T651 -79Q653 -74
654 -70T657 -61H674ZM752 -63Q755 -60 760 -60Q765 -60 770 -63T780 -68Q783 -73 786 -79T789 -91Q789 -104 781 -111T760 -119Q746 -119 738 -111T730 -89Q730 -80 737 -72T752 -63ZM760 -102Q771 -102 771 -90Q771 -85 767 -82T759 -79Q755 -79 756 -81Q748
-82 748 -91Q748 -102 760 -102ZM811 -61Q815 -66 818 -70T823 -79Q825 -78 825 -74T824 -66Q824 -63 826 -61H843V-120H828Q826 -114 822 -109T815 -98Q812 -100 813 -106T814 -115L813 -118Q811 -120 805 -120H795V-82Q795 -80 793 -80T791 -77Q791 -72 793 -69T795
-61H811ZM508 -158Q507 -163 506 -168T503 -178H488Q490 -181 495 -180T503 -180H506Q506 -181 506 -181T507 -183Q507 -186 506 -189T504 -195Q502 -196 499 -196T493 -195Q489 -195 488 -197Q490 -199 496 -199T505 -198L508 -199Q506 -204 506 -208T503 -217H469V-181Q469
-179 467 -179T465 -176Q465 -174 467 -168T471 -159L477 -160Q484 -160 490 -159T504 -157L508 -158ZM553 -158Q551 -169 547 -178H532Q532 -183 538 -182T548 -181Q549 -181 549 -181T551 -182Q550 -190 545 -199H532V-217H514Q512 -210 513 -204T514 -189Q514
-184 512 -180T510 -174Q513 -172 513 -168T516 -159L522 -160Q529 -160 535 -159T548 -157L553 -158ZM715 -158Q713 -163 712 -171T702 -178V-217H683V-180Q683 -177 680 -177T675 -178H674Q674 -173 675 -169T677 -159L683 -160Q690 -160 696 -159T710 -157L715
-158ZM737 -219H731V-217Q727 -217 722 -216T717 -210Q720 -205 718 -199Q722 -197 722 -197Q726 -197 729 -199T737 -201L739 -200Q739 -197 735 -196T727 -192T719 -187T715 -176Q715 -166 724 -162T741 -158Q748 -158 756 -161V-164Q756 -168 755 -169T754 -176Q752
-178 751 -178Q748 -178 746 -177T740 -176Q736 -176 735 -178Q743 -180 751 -184T759 -199Q759 -206 752 -212T737 -219ZM813 -219H808V-217Q795 -216 788 -208T781 -187Q781 -174 790 -167T812 -159Q822 -159 830 -165Q828 -170 826 -173T823 -182Q819 -178 811
-178Q808 -178 805 -179T800 -184V-193Q800 -196 803 -197T809 -198Q813 -198 816 -197T823 -196Q824 -196 824 -197Q825 -201 826 -203T830 -210Q828 -215 823 -215T813 -219ZM80 -159H99Q100 -164 101 -169T102 -180Q104 -175 106 -170T108 -159H123Q125 -164
125 -169T128 -180Q132 -176 132 -170T134 -159H171V-162Q171 -167 172 -170T173 -178Q178 -176 178 -170T181 -159H195Q195 -165 197 -170T199 -180Q203 -176 203 -170T205 -159H242Q244 -164 244 -169T246 -180Q248 -175 249 -170T251 -159H266Q268 -164 269
-169T272 -180Q275 -176 275 -170T277 -159H294Q293 -174 289 -188T283 -217H264V-215Q265 -210 263 -206T261 -197Q257 -201 256 -206T255 -217H236Q233 -204 231 -192T223 -167Q215 -193 212 -217H194Q192 -212 191 -208T188 -199Q184 -202 184 -207T182 -217H164Q162
-203 159 -191T153 -165Q147 -177 146 -190T140 -217H121V-215Q122 -210 119 -206T117 -197Q114 -201 113 -206T112 -217H93Q91 -203 87 -189T80 -159ZM337 -159V-178H346Q349 -176 348 -171T348 -162V-159Q351 -160 353 -160T359 -159Q361 -159 363 -159T367 -161V-217H348V-197H339Q336
-199 336 -205T337 -214V-217H318V-184Q319 -183 319 -181Q319 -179 317 -179T315 -176Q315 -171 316 -168T318 -159H337ZM369 -159H387L393 -171Q395 -169 395 -166T398 -159H417Q415 -168 412 -174T406 -186T402 -199T402 -217H383Q383 -199 382 -192T379 -182T375
-175T369 -159ZM439 -206V-217H421V-180Q421 -178 419 -178T415 -178Q417 -173 418 -169T421 -159H430Q441 -159 452 -163T463 -182Q463 -193 452 -204H451Q447 -204 446 -205T439 -206ZM439 -187L441 -188Q445 -188 445 -183Q445 -178 441 -178H439V-187ZM584
-219V-217Q570 -217 563 -208T556 -185Q556 -174 565 -167T586 -160Q599 -160 607 -168T616 -189Q616 -200 606 -210T584 -219ZM592 -178Q590 -178 590 -178T587 -177Q575 -177 575 -189Q575 -193 579 -199Q581 -199 582 -199T585 -200Q595 -200 597 -187Q596 -185
595 -183T592 -178ZM640 -159Q641 -165 644 -169T650 -178Q652 -176 652 -171T651 -162V-159H670V-217H653Q650 -211 647 -205T638 -195V-217H622V-180Q622 -178 620 -178T616 -178Q618 -173 619 -169T622 -159H640ZM860 -219V-217Q849 -217 841 -209T833 -189Q833
-176 840 -168T862 -160Q873 -160 882 -167T892 -187Q892 -200 883 -210T860 -219ZM860 -200Q869 -200 873 -193V-190Q874 -183 870 -180T860 -178H856Q852 -182 852 -188Q852 -197 860 -200ZM897 -159H916Q918 -162 919 -165T925 -171Q928 -169 930 -166T934 -159H953V-217H934V-191Q934
-190 933 -190Q931 -190 930 -193T927 -199H926Q921 -199 921 -195T916 -189V-217H897V-181Q897 -179 895 -179T893 -176Q893 -172 895 -168T897 -159ZM303 -219Q295 -215 295 -208Q295 -199 305 -199Q314 -199 314 -208Q314 -219 303 -219ZM771 -219H769Q765 -219
763 -215T761 -208Q761 -198 771 -198Q775 -198 776 -201T780 -206V-209Q780 -214 777 -215T771 -219Z" />
<glyph unicode="1" glyph-name="one" horiz-adv-x="988" d="M988 435Q988 432 988 424T986 408T984 391T983 379Q981 367 978 355T972 331Q950 249 904 182T795 66T655 -10T493 -37Q387 -37 296 3T138 113T34 276T0 474Q2 475 2 478Q4 541 21 598T71 709Q82 728
99 751T136 796T178 836T220 865L221 869H225L227 872Q230 874 233 875T240 878Q246 882 251 885T262 893Q276 901 291 907T322 919Q363 935 405 942T492 950Q588 950 678 915T838 811Q861 788 882 763T920 708Q925 699 929 689T938 670Q941 664 944 659T950 648Q958
632 962 616T972 582Q982 543 985 510T988 435ZM754 677Q719 674 684 674T613 675H586Q574 639 565 603T543 530Q549 529 555 529T567 530Q576 530 581 528V204H726V363H836Q844 396 854 428T873 495H726Q727 500 727 505T726 516Q726 519 726 522T728 528H851Q860
568 872 607T895 686H757Q752 684 754 677ZM134 670Q125 635 114 600T95 530Q101 529 107 529T119 530Q122 530 125 530T132 528V204H277V329Q277 340 277 350T279 372Q293 371 307 371T335 372Q343 372 351 372T369 370V206Q383 204 397 204T425 204Q447 204 469
204T514 204V675Q491 674 469 675T425 676Q396 676 369 673V521H277Q277 544 277 568T278 615Q278 645 275 675H138Q136 675 136 673T134 670ZM562 -63Q560 -67 560 -71T556 -79Q553 -79 550 -78T543 -77Q541 -77 540 -78Q543 -83 549 -84T560 -89Q563 -94 563
-100Q563 -107 560 -113Q552 -120 539 -120Q530 -120 521 -117V-115Q521 -110 522 -107T525 -98Q529 -99 532 -100T540 -102H543Q543 -97 538 -96T529 -94Q526 -89 523 -87T519 -78Q519 -68 529 -64T547 -60Q554 -60 562 -63ZM184 -61H221V-62Q222 -67 220 -70T218
-79Q215 -80 212 -80T206 -79Q202 -79 201 -81Q203 -84 208 -84T217 -83H220Q219 -88 217 -91T216 -100H201V-120H191Q184 -120 182 -118L183 -82Q183 -81 179 -79Q181 -74 181 -70T184 -61ZM246 -61Q246 -67 246 -73T245 -85Q245 -95 249 -102H252Q257 -102 257
-96T257 -86V-61H267Q273 -61 275 -63L276 -81Q276 -94 273 -107T252 -120Q241 -120 231 -111Q229 -103 229 -97T229 -82Q229 -80 227 -80T223 -79Q225 -74 226 -70T229 -61H246ZM301 -63Q301 -72 301 -81T301 -100Q302 -102 305 -102T311 -102H313Q311 -107 310
-111T307 -120H283V-82Q283 -80 281 -80T277 -79Q279 -75 280 -71T283 -61H293Q299 -61 301 -63ZM335 -61Q335 -71 335 -80T335 -100Q335 -102 338 -102T344 -102H346V-104Q347 -109 345 -112T342 -120Q338 -120 335 -120T327 -121Q320 -121 316 -118L317 -83Q317
-79 313 -79Q315 -74 315 -70T318 -61H335ZM367 -61H385Q387 -67 389 -72T393 -85Q398 -81 399 -74T402 -61H421Q418 -76 413 -91T402 -120H387Q382 -106 377 -91T367 -61ZM424 -61H463Q461 -66 460 -70T458 -79Q456 -80 453 -80T448 -79Q444 -79 443 -81Q445 -84
450 -84T459 -83H462Q461 -87 460 -90T458 -98H443Q445 -101 450 -100T459 -100H462V-101Q462 -106 460 -110T456 -120H424V-81Q424 -79 422 -79T419 -79Q421 -75 422 -71T424 -61ZM514 -84Q514 -89 513 -94T506 -102Q506 -107 510 -110T514 -119V-120Q511 -121
506 -121Q500 -121 495 -119T489 -109Q487 -110 487 -112T487 -116Q487 -120 486 -120H469V-82Q469 -80 467 -80T465 -78Q465 -73 467 -70T471 -61H479Q493 -60 503 -63T514 -84ZM488 -89H490Q496 -89 495 -83V-81Q493 -81 492 -80T489 -79H488V-89ZM586 -61V-120H569L570
-82Q570 -80 568 -80T564 -79Q566 -74 567 -70T569 -61H586ZM614 -63Q616 -61 622 -61Q627 -61 632 -63T642 -68Q647 -76 651 -89Q649 -100 643 -110T623 -120Q609 -120 601 -111T592 -87Q592 -78 599 -71T614 -63ZM629 -81Q625 -79 621 -79Q617 -79 614 -81T610
-89Q610 -102 624 -102H625Q632 -97 632 -90Q632 -86 629 -81ZM674 -61Q677 -66 680 -70T685 -79Q687 -78 687 -74T687 -66Q687 -62 689 -61H705V-120H690Q686 -115 683 -109T676 -96Q673 -99 673 -105T674 -117V-120H657V-82Q657 -80 655 -80T651 -79Q653 -74
654 -70T657 -61H674ZM752 -63Q755 -60 760 -60Q765 -60 770 -63T780 -68Q783 -73 786 -79T789 -91Q789 -104 781 -111T760 -119Q746 -119 738 -111T730 -89Q730 -80 737 -72T752 -63ZM760 -102Q771 -102 771 -90Q771 -85 767 -82T759 -79Q755 -79 756 -81Q748
-82 748 -91Q748 -102 760 -102ZM811 -61Q815 -66 818 -70T823 -79Q825 -78 825 -74T824 -66Q824 -63 826 -61H843V-120H828Q826 -114 822 -109T815 -98Q812 -100 813 -106T814 -115L813 -118Q811 -120 805 -120H795V-82Q795 -80 793 -80T791 -77Q791 -72 793 -69T795
-61H811ZM508 -158Q507 -163 506 -168T503 -178H488Q490 -181 495 -180T503 -180H506Q506 -181 506 -181T507 -183Q507 -186 506 -189T504 -195Q502 -196 499 -196T493 -195Q489 -195 488 -197Q490 -199 496 -199T505 -198L508 -199Q506 -204 506 -208T503 -217H469V-181Q469
-179 467 -179T465 -176Q465 -174 467 -168T471 -159L477 -160Q484 -160 490 -159T504 -157L508 -158ZM553 -158Q551 -169 547 -178H532Q532 -183 538 -182T548 -181Q549 -181 549 -181T551 -182Q550 -190 545 -199H532V-217H514Q512 -210 513 -204T514 -189Q514
-184 512 -180T510 -174Q513 -172 513 -168T516 -159L522 -160Q529 -160 535 -159T548 -157L553 -158ZM715 -158Q713 -163 712 -171T702 -178V-217H683V-180Q683 -177 680 -177T675 -178H674Q674 -173 675 -169T677 -159L683 -160Q690 -160 696 -159T710 -157L715
-158ZM737 -219H731V-217Q727 -217 722 -216T717 -210Q720 -205 718 -199Q722 -197 722 -197Q726 -197 729 -199T737 -201L739 -200Q739 -197 735 -196T727 -192T719 -187T715 -176Q715 -166 724 -162T741 -158Q748 -158 756 -161V-164Q756 -168 755 -169T754 -176Q752
-178 751 -178Q748 -178 746 -177T740 -176Q736 -176 735 -178Q743 -180 751 -184T759 -199Q759 -206 752 -212T737 -219ZM813 -219H808V-217Q795 -216 788 -208T781 -187Q781 -174 790 -167T812 -159Q822 -159 830 -165Q828 -170 826 -173T823 -182Q819 -178 811
-178Q808 -178 805 -179T800 -184V-193Q800 -196 803 -197T809 -198Q813 -198 816 -197T823 -196Q824 -196 824 -197Q825 -201 826 -203T830 -210Q828 -215 823 -215T813 -219ZM80 -159H99Q100 -164 101 -169T102 -180Q104 -175 106 -170T108 -159H123Q125 -164
125 -169T128 -180Q132 -176 132 -170T134 -159H171V-162Q171 -167 172 -170T173 -178Q178 -176 178 -170T181 -159H195Q195 -165 197 -170T199 -180Q203 -176 203 -170T205 -159H242Q244 -164 244 -169T246 -180Q248 -175 249 -170T251 -159H266Q268 -164 269
-169T272 -180Q275 -176 275 -170T277 -159H294Q293 -174 289 -188T283 -217H264V-215Q265 -210 263 -206T261 -197Q257 -201 256 -206T255 -217H236Q233 -204 231 -192T223 -167Q215 -193 212 -217H194Q192 -212 191 -208T188 -199Q184 -202 184 -207T182 -217H164Q162
-203 159 -191T153 -165Q147 -177 146 -190T140 -217H121V-215Q122 -210 119 -206T117 -197Q114 -201 113 -206T112 -217H93Q91 -203 87 -189T80 -159ZM337 -159V-178H346Q349 -176 348 -171T348 -162V-159Q351 -160 353 -160T359 -159Q361 -159 363 -159T367 -161V-217H348V-197H339Q336
-199 336 -205T337 -214V-217H318V-184Q319 -183 319 -181Q319 -179 317 -179T315 -176Q315 -171 316 -168T318 -159H337ZM369 -159H387L393 -171Q395 -169 395 -166T398 -159H417Q415 -168 412 -174T406 -186T402 -199T402 -217H383Q383 -199 382 -192T379 -182T375
-175T369 -159ZM439 -206V-217H421V-180Q421 -178 419 -178T415 -178Q417 -173 418 -169T421 -159H430Q441 -159 452 -163T463 -182Q463 -193 452 -204H451Q447 -204 446 -205T439 -206ZM439 -187L441 -188Q445 -188 445 -183Q445 -178 441 -178H439V-187ZM584
-219V-217Q570 -217 563 -208T556 -185Q556 -174 565 -167T586 -160Q599 -160 607 -168T616 -189Q616 -200 606 -210T584 -219ZM592 -178Q590 -178 590 -178T587 -177Q575 -177 575 -189Q575 -193 579 -199Q581 -199 582 -199T585 -200Q595 -200 597 -187Q596 -185
595 -183T592 -178ZM640 -159Q641 -165 644 -169T650 -178Q652 -176 652 -171T651 -162V-159H670V-217H653Q650 -211 647 -205T638 -195V-217H622V-180Q622 -178 620 -178T616 -178Q618 -173 619 -169T622 -159H640ZM860 -219V-217Q849 -217 841 -209T833 -189Q833
-176 840 -168T862 -160Q873 -160 882 -167T892 -187Q892 -200 883 -210T860 -219ZM860 -200Q869 -200 873 -193V-190Q874 -183 870 -180T860 -178H856Q852 -182 852 -188Q852 -197 860 -200ZM897 -159H916Q918 -162 919 -165T925 -171Q928 -169 930 -166T934 -159H953V-217H934V-191Q934
-190 933 -190Q931 -190 930 -193T927 -199H926Q921 -199 921 -195T916 -189V-217H897V-181Q897 -179 895 -179T893 -176Q893 -172 895 -168T897 -159ZM303 -219Q295 -215 295 -208Q295 -199 305 -199Q314 -199 314 -208Q314 -219 303 -219ZM771 -219H769Q765 -219
763 -215T761 -208Q761 -198 771 -198Q775 -198 776 -201T780 -206V-209Q780 -214 777 -215T771 -219Z" />
<glyph unicode="2" glyph-name="two" horiz-adv-x="988" d="M988 435Q988 432 988 424T986 408T984 391T983 379Q981 367 978 355T972 331Q950 249 904 182T795 66T655 -10T493 -37Q387 -37 296 3T138 113T34 276T0 474Q2 475 2 478Q4 541 21 598T71 709Q82 728
99 751T136 796T178 836T220 865L221 869H225L227 872Q230 874 233 875T240 878Q246 882 251 885T262 893Q276 901 291 907T322 919Q363 935 405 942T492 950Q588 950 678 915T838 811Q861 788 882 763T920 708Q925 699 929 689T938 670Q941 664 944 659T950 648Q958
632 962 616T972 582Q982 543 985 510T988 435ZM754 677Q719 674 684 674T613 675H586Q574 639 565 603T543 530Q549 529 555 529T567 530Q576 530 581 528V204H726V363H836Q844 396 854 428T873 495H726Q727 500 727 505T726 516Q726 519 726 522T728 528H851Q860
568 872 607T895 686H757Q752 684 754 677ZM134 670Q125 635 114 600T95 530Q101 529 107 529T119 530Q122 530 125 530T132 528V204H277V329Q277 340 277 350T279 372Q293 371 307 371T335 372Q343 372 351 372T369 370V206Q383 204 397 204T425 204Q447 204 469
204T514 204V675Q491 674 469 675T425 676Q396 676 369 673V521H277Q277 544 277 568T278 615Q278 645 275 675H138Q136 675 136 673T134 670ZM562 -63Q560 -67 560 -71T556 -79Q553 -79 550 -78T543 -77Q541 -77 540 -78Q543 -83 549 -84T560 -89Q563 -94 563
-100Q563 -107 560 -113Q552 -120 539 -120Q530 -120 521 -117V-115Q521 -110 522 -107T525 -98Q529 -99 532 -100T540 -102H543Q543 -97 538 -96T529 -94Q526 -89 523 -87T519 -78Q519 -68 529 -64T547 -60Q554 -60 562 -63ZM184 -61H221V-62Q222 -67 220 -70T218
-79Q215 -80 212 -80T206 -79Q202 -79 201 -81Q203 -84 208 -84T217 -83H220Q219 -88 217 -91T216 -100H201V-120H191Q184 -120 182 -118L183 -82Q183 -81 179 -79Q181 -74 181 -70T184 -61ZM246 -61Q246 -67 246 -73T245 -85Q245 -95 249 -102H252Q257 -102 257
-96T257 -86V-61H267Q273 -61 275 -63L276 -81Q276 -94 273 -107T252 -120Q241 -120 231 -111Q229 -103 229 -97T229 -82Q229 -80 227 -80T223 -79Q225 -74 226 -70T229 -61H246ZM301 -63Q301 -72 301 -81T301 -100Q302 -102 305 -102T311 -102H313Q311 -107 310
-111T307 -120H283V-82Q283 -80 281 -80T277 -79Q279 -75 280 -71T283 -61H293Q299 -61 301 -63ZM335 -61Q335 -71 335 -80T335 -100Q335 -102 338 -102T344 -102H346V-104Q347 -109 345 -112T342 -120Q338 -120 335 -120T327 -121Q320 -121 316 -118L317 -83Q317
-79 313 -79Q315 -74 315 -70T318 -61H335ZM367 -61H385Q387 -67 389 -72T393 -85Q398 -81 399 -74T402 -61H421Q418 -76 413 -91T402 -120H387Q382 -106 377 -91T367 -61ZM424 -61H463Q461 -66 460 -70T458 -79Q456 -80 453 -80T448 -79Q444 -79 443 -81Q445 -84
450 -84T459 -83H462Q461 -87 460 -90T458 -98H443Q445 -101 450 -100T459 -100H462V-101Q462 -106 460 -110T456 -120H424V-81Q424 -79 422 -79T419 -79Q421 -75 422 -71T424 -61ZM514 -84Q514 -89 513 -94T506 -102Q506 -107 510 -110T514 -119V-120Q511 -121
506 -121Q500 -121 495 -119T489 -109Q487 -110 487 -112T487 -116Q487 -120 486 -120H469V-82Q469 -80 467 -80T465 -78Q465 -73 467 -70T471 -61H479Q493 -60 503 -63T514 -84ZM488 -89H490Q496 -89 495 -83V-81Q493 -81 492 -80T489 -79H488V-89ZM586 -61V-120H569L570
-82Q570 -80 568 -80T564 -79Q566 -74 567 -70T569 -61H586ZM614 -63Q616 -61 622 -61Q627 -61 632 -63T642 -68Q647 -76 651 -89Q649 -100 643 -110T623 -120Q609 -120 601 -111T592 -87Q592 -78 599 -71T614 -63ZM629 -81Q625 -79 621 -79Q617 -79 614 -81T610
-89Q610 -102 624 -102H625Q632 -97 632 -90Q632 -86 629 -81ZM674 -61Q677 -66 680 -70T685 -79Q687 -78 687 -74T687 -66Q687 -62 689 -61H705V-120H690Q686 -115 683 -109T676 -96Q673 -99 673 -105T674 -117V-120H657V-82Q657 -80 655 -80T651 -79Q653 -74
654 -70T657 -61H674ZM752 -63Q755 -60 760 -60Q765 -60 770 -63T780 -68Q783 -73 786 -79T789 -91Q789 -104 781 -111T760 -119Q746 -119 738 -111T730 -89Q730 -80 737 -72T752 -63ZM760 -102Q771 -102 771 -90Q771 -85 767 -82T759 -79Q755 -79 756 -81Q748
-82 748 -91Q748 -102 760 -102ZM811 -61Q815 -66 818 -70T823 -79Q825 -78 825 -74T824 -66Q824 -63 826 -61H843V-120H828Q826 -114 822 -109T815 -98Q812 -100 813 -106T814 -115L813 -118Q811 -120 805 -120H795V-82Q795 -80 793 -80T791 -77Q791 -72 793 -69T795
-61H811ZM508 -158Q507 -163 506 -168T503 -178H488Q490 -181 495 -180T503 -180H506Q506 -181 506 -181T507 -183Q507 -186 506 -189T504 -195Q502 -196 499 -196T493 -195Q489 -195 488 -197Q490 -199 496 -199T505 -198L508 -199Q506 -204 506 -208T503 -217H469V-181Q469
-179 467 -179T465 -176Q465 -174 467 -168T471 -159L477 -160Q484 -160 490 -159T504 -157L508 -158ZM553 -158Q551 -169 547 -178H532Q532 -183 538 -182T548 -181Q549 -181 549 -181T551 -182Q550 -190 545 -199H532V-217H514Q512 -210 513 -204T514 -189Q514
-184 512 -180T510 -174Q513 -172 513 -168T516 -159L522 -160Q529 -160 535 -159T548 -157L553 -158ZM715 -158Q713 -163 712 -171T702 -178V-217H683V-180Q683 -177 680 -177T675 -178H674Q674 -173 675 -169T677 -159L683 -160Q690 -160 696 -159T710 -157L715
-158ZM737 -219H731V-217Q727 -217 722 -216T717 -210Q720 -205 718 -199Q722 -197 722 -197Q726 -197 729 -199T737 -201L739 -200Q739 -197 735 -196T727 -192T719 -187T715 -176Q715 -166 724 -162T741 -158Q748 -158 756 -161V-164Q756 -168 755 -169T754 -176Q752
-178 751 -178Q748 -178 746 -177T740 -176Q736 -176 735 -178Q743 -180 751 -184T759 -199Q759 -206 752 -212T737 -219ZM813 -219H808V-217Q795 -216 788 -208T781 -187Q781 -174 790 -167T812 -159Q822 -159 830 -165Q828 -170 826 -173T823 -182Q819 -178 811
-178Q808 -178 805 -179T800 -184V-193Q800 -196 803 -197T809 -198Q813 -198 816 -197T823 -196Q824 -196 824 -197Q825 -201 826 -203T830 -210Q828 -215 823 -215T813 -219ZM80 -159H99Q100 -164 101 -169T102 -180Q104 -175 106 -170T108 -159H123Q125 -164
125 -169T128 -180Q132 -176 132 -170T134 -159H171V-162Q171 -167 172 -170T173 -178Q178 -176 178 -170T181 -159H195Q195 -165 197 -170T199 -180Q203 -176 203 -170T205 -159H242Q244 -164 244 -169T246 -180Q248 -175 249 -170T251 -159H266Q268 -164 269
-169T272 -180Q275 -176 275 -170T277 -159H294Q293 -174 289 -188T283 -217H264V-215Q265 -210 263 -206T261 -197Q257 -201 256 -206T255 -217H236Q233 -204 231 -192T223 -167Q215 -193 212 -217H194Q192 -212 191 -208T188 -199Q184 -202 184 -207T182 -217H164Q162
-203 159 -191T153 -165Q147 -177 146 -190T140 -217H121V-215Q122 -210 119 -206T117 -197Q114 -201 113 -206T112 -217H93Q91 -203 87 -189T80 -159ZM337 -159V-178H346Q349 -176 348 -171T348 -162V-159Q351 -160 353 -160T359 -159Q361 -159 363 -159T367 -161V-217H348V-197H339Q336
-199 336 -205T337 -214V-217H318V-184Q319 -183 319 -181Q319 -179 317 -179T315 -176Q315 -171 316 -168T318 -159H337ZM369 -159H387L393 -171Q395 -169 395 -166T398 -159H417Q415 -168 412 -174T406 -186T402 -199T402 -217H383Q383 -199 382 -192T379 -182T375
-175T369 -159ZM439 -206V-217H421V-180Q421 -178 419 -178T415 -178Q417 -173 418 -169T421 -159H430Q441 -159 452 -163T463 -182Q463 -193 452 -204H451Q447 -204 446 -205T439 -206ZM439 -187L441 -188Q445 -188 445 -183Q445 -178 441 -178H439V-187ZM584
-219V-217Q570 -217 563 -208T556 -185Q556 -174 565 -167T586 -160Q599 -160 607 -168T616 -189Q616 -200 606 -210T584 -219ZM592 -178Q590 -178 590 -178T587 -177Q575 -177 575 -189Q575 -193 579 -199Q581 -199 582 -199T585 -200Q595 -200 597 -187Q596 -185
595 -183T592 -178ZM640 -159Q641 -165 644 -169T650 -178Q652 -176 652 -171T651 -162V-159H670V-217H653Q650 -211 647 -205T638 -195V-217H622V-180Q622 -178 620 -178T616 -178Q618 -173 619 -169T622 -159H640ZM860 -219V-217Q849 -217 841 -209T833 -189Q833
-176 840 -168T862 -160Q873 -160 882 -167T892 -187Q892 -200 883 -210T860 -219ZM860 -200Q869 -200 873 -193V-190Q874 -183 870 -180T860 -178H856Q852 -182 852 -188Q852 -197 860 -200ZM897 -159H916Q918 -162 919 -165T925 -171Q928 -169 930 -166T934 -159H953V-217H934V-191Q934
-190 933 -190Q931 -190 930 -193T927 -199H926Q921 -199 921 -195T916 -189V-217H897V-181Q897 -179 895 -179T893 -176Q893 -172 895 -168T897 -159ZM303 -219Q295 -215 295 -208Q295 -199 305 -199Q314 -199 314 -208Q314 -219 303 -219ZM771 -219H769Q765 -219
763 -215T761 -208Q761 -198 771 -198Q775 -198 776 -201T780 -206V-209Q780 -214 777 -215T771 -219Z" />
<glyph unicode="3" glyph-name="three" horiz-adv-x="988" d="M988 435Q988 432 988 424T986 408T984 391T983 379Q981 367 978 355T972 331Q950 249 904 182T795 66T655 -10T493 -37Q387 -37 296 3T138 113T34 276T0 474Q2 475 2 478Q4 541 21 598T71 709Q82
728 99 751T136 796T178 836T220 865L221 869H225L227 872Q230 874 233 875T240 878Q246 882 251 885T262 893Q276 901 291 907T322 919Q363 935 405 942T492 950Q588 950 678 915T838 811Q861 788 882 763T920 708Q925 699 929 689T938 670Q941 664 944 659T950
648Q958 632 962 616T972 582Q982 543 985 510T988 435ZM754 677Q719 674 684 674T613 675H586Q574 639 565 603T543 530Q549 529 555 529T567 530Q576 530 581 528V204H726V363H836Q844 396 854 428T873 495H726Q727 500 727 505T726 516Q726 519 726 522T728
528H851Q860 568 872 607T895 686H757Q752 684 754 677ZM134 670Q125 635 114 600T95 530Q101 529 107 529T119 530Q122 530 125 530T132 528V204H277V329Q277 340 277 350T279 372Q293 371 307 371T335 372Q343 372 351 372T369 370V206Q383 204 397 204T425 204Q447
204 469 204T514 204V675Q491 674 469 675T425 676Q396 676 369 673V521H277Q277 544 277 568T278 615Q278 645 275 675H138Q136 675 136 673T134 670ZM562 -63Q560 -67 560 -71T556 -79Q553 -79 550 -78T543 -77Q541 -77 540 -78Q543 -83 549 -84T560 -89Q563
-94 563 -100Q563 -107 560 -113Q552 -120 539 -120Q530 -120 521 -117V-115Q521 -110 522 -107T525 -98Q529 -99 532 -100T540 -102H543Q543 -97 538 -96T529 -94Q526 -89 523 -87T519 -78Q519 -68 529 -64T547 -60Q554 -60 562 -63ZM184 -61H221V-62Q222 -67
220 -70T218 -79Q215 -80 212 -80T206 -79Q202 -79 201 -81Q203 -84 208 -84T217 -83H220Q219 -88 217 -91T216 -100H201V-120H191Q184 -120 182 -118L183 -82Q183 -81 179 -79Q181 -74 181 -70T184 -61ZM246 -61Q246 -67 246 -73T245 -85Q245 -95 249 -102H252Q257
-102 257 -96T257 -86V-61H267Q273 -61 275 -63L276 -81Q276 -94 273 -107T252 -120Q241 -120 231 -111Q229 -103 229 -97T229 -82Q229 -80 227 -80T223 -79Q225 -74 226 -70T229 -61H246ZM301 -63Q301 -72 301 -81T301 -100Q302 -102 305 -102T311 -102H313Q311
-107 310 -111T307 -120H283V-82Q283 -80 281 -80T277 -79Q279 -75 280 -71T283 -61H293Q299 -61 301 -63ZM335 -61Q335 -71 335 -80T335 -100Q335 -102 338 -102T344 -102H346V-104Q347 -109 345 -112T342 -120Q338 -120 335 -120T327 -121Q320 -121 316 -118L317
-83Q317 -79 313 -79Q315 -74 315 -70T318 -61H335ZM367 -61H385Q387 -67 389 -72T393 -85Q398 -81 399 -74T402 -61H421Q418 -76 413 -91T402 -120H387Q382 -106 377 -91T367 -61ZM424 -61H463Q461 -66 460 -70T458 -79Q456 -80 453 -80T448 -79Q444 -79 443 -81Q445
-84 450 -84T459 -83H462Q461 -87 460 -90T458 -98H443Q445 -101 450 -100T459 -100H462V-101Q462 -106 460 -110T456 -120H424V-81Q424 -79 422 -79T419 -79Q421 -75 422 -71T424 -61ZM514 -84Q514 -89 513 -94T506 -102Q506 -107 510 -110T514 -119V-120Q511
-121 506 -121Q500 -121 495 -119T489 -109Q487 -110 487 -112T487 -116Q487 -120 486 -120H469V-82Q469 -80 467 -80T465 -78Q465 -73 467 -70T471 -61H479Q493 -60 503 -63T514 -84ZM488 -89H490Q496 -89 495 -83V-81Q493 -81 492 -80T489 -79H488V-89ZM586 -61V-120H569L570
-82Q570 -80 568 -80T564 -79Q566 -74 567 -70T569 -61H586ZM614 -63Q616 -61 622 -61Q627 -61 632 -63T642 -68Q647 -76 651 -89Q649 -100 643 -110T623 -120Q609 -120 601 -111T592 -87Q592 -78 599 -71T614 -63ZM629 -81Q625 -79 621 -79Q617 -79 614 -81T610
-89Q610 -102 624 -102H625Q632 -97 632 -90Q632 -86 629 -81ZM674 -61Q677 -66 680 -70T685 -79Q687 -78 687 -74T687 -66Q687 -62 689 -61H705V-120H690Q686 -115 683 -109T676 -96Q673 -99 673 -105T674 -117V-120H657V-82Q657 -80 655 -80T651 -79Q653 -74
654 -70T657 -61H674ZM752 -63Q755 -60 760 -60Q765 -60 770 -63T780 -68Q783 -73 786 -79T789 -91Q789 -104 781 -111T760 -119Q746 -119 738 -111T730 -89Q730 -80 737 -72T752 -63ZM760 -102Q771 -102 771 -90Q771 -85 767 -82T759 -79Q755 -79 756 -81Q748
-82 748 -91Q748 -102 760 -102ZM811 -61Q815 -66 818 -70T823 -79Q825 -78 825 -74T824 -66Q824 -63 826 -61H843V-120H828Q826 -114 822 -109T815 -98Q812 -100 813 -106T814 -115L813 -118Q811 -120 805 -120H795V-82Q795 -80 793 -80T791 -77Q791 -72 793 -69T795
-61H811ZM508 -158Q507 -163 506 -168T503 -178H488Q490 -181 495 -180T503 -180H506Q506 -181 506 -181T507 -183Q507 -186 506 -189T504 -195Q502 -196 499 -196T493 -195Q489 -195 488 -197Q490 -199 496 -199T505 -198L508 -199Q506 -204 506 -208T503 -217H469V-181Q469
-179 467 -179T465 -176Q465 -174 467 -168T471 -159L477 -160Q484 -160 490 -159T504 -157L508 -158ZM553 -158Q551 -169 547 -178H532Q532 -183 538 -182T548 -181Q549 -181 549 -181T551 -182Q550 -190 545 -199H532V-217H514Q512 -210 513 -204T514 -189Q514
-184 512 -180T510 -174Q513 -172 513 -168T516 -159L522 -160Q529 -160 535 -159T548 -157L553 -158ZM715 -158Q713 -163 712 -171T702 -178V-217H683V-180Q683 -177 680 -177T675 -178H674Q674 -173 675 -169T677 -159L683 -160Q690 -160 696 -159T710 -157L715
-158ZM737 -219H731V-217Q727 -217 722 -216T717 -210Q720 -205 718 -199Q722 -197 722 -197Q726 -197 729 -199T737 -201L739 -200Q739 -197 735 -196T727 -192T719 -187T715 -176Q715 -166 724 -162T741 -158Q748 -158 756 -161V-164Q756 -168 755 -169T754 -176Q752
-178 751 -178Q748 -178 746 -177T740 -176Q736 -176 735 -178Q743 -180 751 -184T759 -199Q759 -206 752 -212T737 -219ZM813 -219H808V-217Q795 -216 788 -208T781 -187Q781 -174 790 -167T812 -159Q822 -159 830 -165Q828 -170 826 -173T823 -182Q819 -178 811
-178Q808 -178 805 -179T800 -184V-193Q800 -196 803 -197T809 -198Q813 -198 816 -197T823 -196Q824 -196 824 -197Q825 -201 826 -203T830 -210Q828 -215 823 -215T813 -219ZM80 -159H99Q100 -164 101 -169T102 -180Q104 -175 106 -170T108 -159H123Q125 -164
125 -169T128 -180Q132 -176 132 -170T134 -159H171V-162Q171 -167 172 -170T173 -178Q178 -176 178 -170T181 -159H195Q195 -165 197 -170T199 -180Q203 -176 203 -170T205 -159H242Q244 -164 244 -169T246 -180Q248 -175 249 -170T251 -159H266Q268 -164 269
-169T272 -180Q275 -176 275 -170T277 -159H294Q293 -174 289 -188T283 -217H264V-215Q265 -210 263 -206T261 -197Q257 -201 256 -206T255 -217H236Q233 -204 231 -192T223 -167Q215 -193 212 -217H194Q192 -212 191 -208T188 -199Q184 -202 184 -207T182 -217H164Q162
-203 159 -191T153 -165Q147 -177 146 -190T140 -217H121V-215Q122 -210 119 -206T117 -197Q114 -201 113 -206T112 -217H93Q91 -203 87 -189T80 -159ZM337 -159V-178H346Q349 -176 348 -171T348 -162V-159Q351 -160 353 -160T359 -159Q361 -159 363 -159T367 -161V-217H348V-197H339Q336
-199 336 -205T337 -214V-217H318V-184Q319 -183 319 -181Q319 -179 317 -179T315 -176Q315 -171 316 -168T318 -159H337ZM369 -159H387L393 -171Q395 -169 395 -166T398 -159H417Q415 -168 412 -174T406 -186T402 -199T402 -217H383Q383 -199 382 -192T379 -182T375
-175T369 -159ZM439 -206V-217H421V-180Q421 -178 419 -178T415 -178Q417 -173 418 -169T421 -159H430Q441 -159 452 -163T463 -182Q463 -193 452 -204H451Q447 -204 446 -205T439 -206ZM439 -187L441 -188Q445 -188 445 -183Q445 -178 441 -178H439V-187ZM584
-219V-217Q570 -217 563 -208T556 -185Q556 -174 565 -167T586 -160Q599 -160 607 -168T616 -189Q616 -200 606 -210T584 -219ZM592 -178Q590 -178 590 -178T587 -177Q575 -177 575 -189Q575 -193 579 -199Q581 -199 582 -199T585 -200Q595 -200 597 -187Q596 -185
595 -183T592 -178ZM640 -159Q641 -165 644 -169T650 -178Q652 -176 652 -171T651 -162V-159H670V-217H653Q650 -211 647 -205T638 -195V-217H622V-180Q622 -178 620 -178T616 -178Q618 -173 619 -169T622 -159H640ZM860 -219V-217Q849 -217 841 -209T833 -189Q833
-176 840 -168T862 -160Q873 -160 882 -167T892 -187Q892 -200 883 -210T860 -219ZM860 -200Q869 -200 873 -193V-190Q874 -183 870 -180T860 -178H856Q852 -182 852 -188Q852 -197 860 -200ZM897 -159H916Q918 -162 919 -165T925 -171Q928 -169 930 -166T934 -159H953V-217H934V-191Q934
-190 933 -190Q931 -190 930 -193T927 -199H926Q921 -199 921 -195T916 -189V-217H897V-181Q897 -179 895 -179T893 -176Q893 -172 895 -168T897 -159ZM303 -219Q295 -215 295 -208Q295 -199 305 -199Q314 -199 314 -208Q314 -219 303 -219ZM771 -219H769Q765 -219
763 -215T761 -208Q761 -198 771 -198Q775 -198 776 -201T780 -206V-209Q780 -214 777 -215T771 -219Z" />
<glyph unicode="4" glyph-name="four" horiz-adv-x="988" d="M988 435Q988 432 988 424T986 408T984 391T983 379Q981 367 978 355T972 331Q950 249 904 182T795 66T655 -10T493 -37Q387 -37 296 3T138 113T34 276T0 474Q2 475 2 478Q4 541 21 598T71 709Q82 728
99 751T136 796T178 836T220 865L221 869H225L227 872Q230 874 233 875T240 878Q246 882 251 885T262 893Q276 901 291 907T322 919Q363 935 405 942T492 950Q588 950 678 915T838 811Q861 788 882 763T920 708Q925 699 929 689T938 670Q941 664 944 659T950 648Q958
632 962 616T972 582Q982 543 985 510T988 435ZM754 677Q719 674 684 674T613 675H586Q574 639 565 603T543 530Q549 529 555 529T567 530Q576 530 581 528V204H726V363H836Q844 396 854 428T873 495H726Q727 500 727 505T726 516Q726 519 726 522T728 528H851Q860
568 872 607T895 686H757Q752 684 754 677ZM134 670Q125 635 114 600T95 530Q101 529 107 529T119 530Q122 530 125 530T132 528V204H277V329Q277 340 277 350T279 372Q293 371 307 371T335 372Q343 372 351 372T369 370V206Q383 204 397 204T425 204Q447 204 469
204T514 204V675Q491 674 469 675T425 676Q396 676 369 673V521H277Q277 544 277 568T278 615Q278 645 275 675H138Q136 675 136 673T134 670ZM562 -63Q560 -67 560 -71T556 -79Q553 -79 550 -78T543 -77Q541 -77 540 -78Q543 -83 549 -84T560 -89Q563 -94 563
-100Q563 -107 560 -113Q552 -120 539 -120Q530 -120 521 -117V-115Q521 -110 522 -107T525 -98Q529 -99 532 -100T540 -102H543Q543 -97 538 -96T529 -94Q526 -89 523 -87T519 -78Q519 -68 529 -64T547 -60Q554 -60 562 -63ZM184 -61H221V-62Q222 -67 220 -70T218
-79Q215 -80 212 -80T206 -79Q202 -79 201 -81Q203 -84 208 -84T217 -83H220Q219 -88 217 -91T216 -100H201V-120H191Q184 -120 182 -118L183 -82Q183 -81 179 -79Q181 -74 181 -70T184 -61ZM246 -61Q246 -67 246 -73T245 -85Q245 -95 249 -102H252Q257 -102 257
-96T257 -86V-61H267Q273 -61 275 -63L276 -81Q276 -94 273 -107T252 -120Q241 -120 231 -111Q229 -103 229 -97T229 -82Q229 -80 227 -80T223 -79Q225 -74 226 -70T229 -61H246ZM301 -63Q301 -72 301 -81T301 -100Q302 -102 305 -102T311 -102H313Q311 -107 310
-111T307 -120H283V-82Q283 -80 281 -80T277 -79Q279 -75 280 -71T283 -61H293Q299 -61 301 -63ZM335 -61Q335 -71 335 -80T335 -100Q335 -102 338 -102T344 -102H346V-104Q347 -109 345 -112T342 -120Q338 -120 335 -120T327 -121Q320 -121 316 -118L317 -83Q317
-79 313 -79Q315 -74 315 -70T318 -61H335ZM367 -61H385Q387 -67 389 -72T393 -85Q398 -81 399 -74T402 -61H421Q418 -76 413 -91T402 -120H387Q382 -106 377 -91T367 -61ZM424 -61H463Q461 -66 460 -70T458 -79Q456 -80 453 -80T448 -79Q444 -79 443 -81Q445 -84
450 -84T459 -83H462Q461 -87 460 -90T458 -98H443Q445 -101 450 -100T459 -100H462V-101Q462 -106 460 -110T456 -120H424V-81Q424 -79 422 -79T419 -79Q421 -75 422 -71T424 -61ZM514 -84Q514 -89 513 -94T506 -102Q506 -107 510 -110T514 -119V-120Q511 -121
506 -121Q500 -121 495 -119T489 -109Q487 -110 487 -112T487 -116Q487 -120 486 -120H469V-82Q469 -80 467 -80T465 -78Q465 -73 467 -70T471 -61H479Q493 -60 503 -63T514 -84ZM488 -89H490Q496 -89 495 -83V-81Q493 -81 492 -80T489 -79H488V-89ZM586 -61V-120H569L570
-82Q570 -80 568 -80T564 -79Q566 -74 567 -70T569 -61H586ZM614 -63Q616 -61 622 -61Q627 -61 632 -63T642 -68Q647 -76 651 -89Q649 -100 643 -110T623 -120Q609 -120 601 -111T592 -87Q592 -78 599 -71T614 -63ZM629 -81Q625 -79 621 -79Q617 -79 614 -81T610
-89Q610 -102 624 -102H625Q632 -97 632 -90Q632 -86 629 -81ZM674 -61Q677 -66 680 -70T685 -79Q687 -78 687 -74T687 -66Q687 -62 689 -61H705V-120H690Q686 -115 683 -109T676 -96Q673 -99 673 -105T674 -117V-120H657V-82Q657 -80 655 -80T651 -79Q653 -74
654 -70T657 -61H674ZM752 -63Q755 -60 760 -60Q765 -60 770 -63T780 -68Q783 -73 786 -79T789 -91Q789 -104 781 -111T760 -119Q746 -119 738 -111T730 -89Q730 -80 737 -72T752 -63ZM760 -102Q771 -102 771 -90Q771 -85 767 -82T759 -79Q755 -79 756 -81Q748
-82 748 -91Q748 -102 760 -102ZM811 -61Q815 -66 818 -70T823 -79Q825 -78 825 -74T824 -66Q824 -63 826 -61H843V-120H828Q826 -114 822 -109T815 -98Q812 -100 813 -106T814 -115L813 -118Q811 -120 805 -120H795V-82Q795 -80 793 -80T791 -77Q791 -72 793 -69T795
-61H811ZM508 -158Q507 -163 506 -168T503 -178H488Q490 -181 495 -180T503 -180H506Q506 -181 506 -181T507 -183Q507 -186 506 -189T504 -195Q502 -196 499 -196T493 -195Q489 -195 488 -197Q490 -199 496 -199T505 -198L508 -199Q506 -204 506 -208T503 -217H469V-181Q469
-179 467 -179T465 -176Q465 -174 467 -168T471 -159L477 -160Q484 -160 490 -159T504 -157L508 -158ZM553 -158Q551 -169 547 -178H532Q532 -183 538 -182T548 -181Q549 -181 549 -181T551 -182Q550 -190 545 -199H532V-217H514Q512 -210 513 -204T514 -189Q514
-184 512 -180T510 -174Q513 -172 513 -168T516 -159L522 -160Q529 -160 535 -159T548 -157L553 -158ZM715 -158Q713 -163 712 -171T702 -178V-217H683V-180Q683 -177 680 -177T675 -178H674Q674 -173 675 -169T677 -159L683 -160Q690 -160 696 -159T710 -157L715
-158ZM737 -219H731V-217Q727 -217 722 -216T717 -210Q720 -205 718 -199Q722 -197 722 -197Q726 -197 729 -199T737 -201L739 -200Q739 -197 735 -196T727 -192T719 -187T715 -176Q715 -166 724 -162T741 -158Q748 -158 756 -161V-164Q756 -168 755 -169T754 -176Q752
-178 751 -178Q748 -178 746 -177T740 -176Q736 -176 735 -178Q743 -180 751 -184T759 -199Q759 -206 752 -212T737 -219ZM813 -219H808V-217Q795 -216 788 -208T781 -187Q781 -174 790 -167T812 -159Q822 -159 830 -165Q828 -170 826 -173T823 -182Q819 -178 811
-178Q808 -178 805 -179T800 -184V-193Q800 -196 803 -197T809 -198Q813 -198 816 -197T823 -196Q824 -196 824 -197Q825 -201 826 -203T830 -210Q828 -215 823 -215T813 -219ZM80 -159H99Q100 -164 101 -169T102 -180Q104 -175 106 -170T108 -159H123Q125 -164
125 -169T128 -180Q132 -176 132 -170T134 -159H171V-162Q171 -167 172 -170T173 -178Q178 -176 178 -170T181 -159H195Q195 -165 197 -170T199 -180Q203 -176 203 -170T205 -159H242Q244 -164 244 -169T246 -180Q248 -175 249 -170T251 -159H266Q268 -164 269
-169T272 -180Q275 -176 275 -170T277 -159H294Q293 -174 289 -188T283 -217H264V-215Q265 -210 263 -206T261 -197Q257 -201 256 -206T255 -217H236Q233 -204 231 -192T223 -167Q215 -193 212 -217H194Q192 -212 191 -208T188 -199Q184 -202 184 -207T182 -217H164Q162
-203 159 -191T153 -165Q147 -177 146 -190T140 -217H121V-215Q122 -210 119 -206T117 -197Q114 -201 113 -206T112 -217H93Q91 -203 87 -189T80 -159ZM337 -159V-178H346Q349 -176 348 -171T348 -162V-159Q351 -160 353 -160T359 -159Q361 -159 363 -159T367 -161V-217H348V-197H339Q336
-199 336 -205T337 -214V-217H318V-184Q319 -183 319 -181Q319 -179 317 -179T315 -176Q315 -171 316 -168T318 -159H337ZM369 -159H387L393 -171Q395 -169 395 -166T398 -159H417Q415 -168 412 -174T406 -186T402 -199T402 -217H383Q383 -199 382 -192T379 -182T375
-175T369 -159ZM439 -206V-217H421V-180Q421 -178 419 -178T415 -178Q417 -173 418 -169T421 -159H430Q441 -159 452 -163T463 -182Q463 -193 452 -204H451Q447 -204 446 -205T439 -206ZM439 -187L441 -188Q445 -188 445 -183Q445 -178 441 -178H439V-187ZM584
-219V-217Q570 -217 563 -208T556 -185Q556 -174 565 -167T586 -160Q599 -160 607 -168T616 -189Q616 -200 606 -210T584 -219ZM592 -178Q590 -178 590 -178T587 -177Q575 -177 575 -189Q575 -193 579 -199Q581 -199 582 -199T585 -200Q595 -200 597 -187Q596 -185
595 -183T592 -178ZM640 -159Q641 -165 644 -169T650 -178Q652 -176 652 -171T651 -162V-159H670V-217H653Q650 -211 647 -205T638 -195V-217H622V-180Q622 -178 620 -178T616 -178Q618 -173 619 -169T622 -159H640ZM860 -219V-217Q849 -217 841 -209T833 -189Q833
-176 840 -168T862 -160Q873 -160 882 -167T892 -187Q892 -200 883 -210T860 -219ZM860 -200Q869 -200 873 -193V-190Q874 -183 870 -180T860 -178H856Q852 -182 852 -188Q852 -197 860 -200ZM897 -159H916Q918 -162 919 -165T925 -171Q928 -169 930 -166T934 -159H953V-217H934V-191Q934
-190 933 -190Q931 -190 930 -193T927 -199H926Q921 -199 921 -195T916 -189V-217H897V-181Q897 -179 895 -179T893 -176Q893 -172 895 -168T897 -159ZM303 -219Q295 -215 295 -208Q295 -199 305 -199Q314 -199 314 -208Q314 -219 303 -219ZM771 -219H769Q765 -219
763 -215T761 -208Q761 -198 771 -198Q775 -198 776 -201T780 -206V-209Q780 -214 777 -215T771 -219Z" />
<glyph unicode="5" glyph-name="five" horiz-adv-x="988" d="M988 435Q988 432 988 424T986 408T984 391T983 379Q981 367 978 355T972 331Q950 249 904 182T795 66T655 -10T493 -37Q387 -37 296 3T138 113T34 276T0 474Q2 475 2 478Q4 541 21 598T71 709Q82 728
99 751T136 796T178 836T220 865L221 869H225L227 872Q230 874 233 875T240 878Q246 882 251 885T262 893Q276 901 291 907T322 919Q363 935 405 942T492 950Q588 950 678 915T838 811Q861 788 882 763T920 708Q925 699 929 689T938 670Q941 664 944 659T950 648Q958
632 962 616T972 582Q982 543 985 510T988 435ZM754 677Q719 674 684 674T613 675H586Q574 639 565 603T543 530Q549 529 555 529T567 530Q576 530 581 528V204H726V363H836Q844 396 854 428T873 495H726Q727 500 727 505T726 516Q726 519 726 522T728 528H851Q860
568 872 607T895 686H757Q752 684 754 677ZM134 670Q125 635 114 600T95 530Q101 529 107 529T119 530Q122 530 125 530T132 528V204H277V329Q277 340 277 350T279 372Q293 371 307 371T335 372Q343 372 351 372T369 370V206Q383 204 397 204T425 204Q447 204 469
204T514 204V675Q491 674 469 675T425 676Q396 676 369 673V521H277Q277 544 277 568T278 615Q278 645 275 675H138Q136 675 136 673T134 670ZM562 -63Q560 -67 560 -71T556 -79Q553 -79 550 -78T543 -77Q541 -77 540 -78Q543 -83 549 -84T560 -89Q563 -94 563
-100Q563 -107 560 -113Q552 -120 539 -120Q530 -120 521 -117V-115Q521 -110 522 -107T525 -98Q529 -99 532 -100T540 -102H543Q543 -97 538 -96T529 -94Q526 -89 523 -87T519 -78Q519 -68 529 -64T547 -60Q554 -60 562 -63ZM184 -61H221V-62Q222 -67 220 -70T218
-79Q215 -80 212 -80T206 -79Q202 -79 201 -81Q203 -84 208 -84T217 -83H220Q219 -88 217 -91T216 -100H201V-120H191Q184 -120 182 -118L183 -82Q183 -81 179 -79Q181 -74 181 -70T184 -61ZM246 -61Q246 -67 246 -73T245 -85Q245 -95 249 -102H252Q257 -102 257
-96T257 -86V-61H267Q273 -61 275 -63L276 -81Q276 -94 273 -107T252 -120Q241 -120 231 -111Q229 -103 229 -97T229 -82Q229 -80 227 -80T223 -79Q225 -74 226 -70T229 -61H246ZM301 -63Q301 -72 301 -81T301 -100Q302 -102 305 -102T311 -102H313Q311 -107 310
-111T307 -120H283V-82Q283 -80 281 -80T277 -79Q279 -75 280 -71T283 -61H293Q299 -61 301 -63ZM335 -61Q335 -71 335 -80T335 -100Q335 -102 338 -102T344 -102H346V-104Q347 -109 345 -112T342 -120Q338 -120 335 -120T327 -121Q320 -121 316 -118L317 -83Q317
-79 313 -79Q315 -74 315 -70T318 -61H335ZM367 -61H385Q387 -67 389 -72T393 -85Q398 -81 399 -74T402 -61H421Q418 -76 413 -91T402 -120H387Q382 -106 377 -91T367 -61ZM424 -61H463Q461 -66 460 -70T458 -79Q456 -80 453 -80T448 -79Q444 -79 443 -81Q445 -84
450 -84T459 -83H462Q461 -87 460 -90T458 -98H443Q445 -101 450 -100T459 -100H462V-101Q462 -106 460 -110T456 -120H424V-81Q424 -79 422 -79T419 -79Q421 -75 422 -71T424 -61ZM514 -84Q514 -89 513 -94T506 -102Q506 -107 510 -110T514 -119V-120Q511 -121
506 -121Q500 -121 495 -119T489 -109Q487 -110 487 -112T487 -116Q487 -120 486 -120H469V-82Q469 -80 467 -80T465 -78Q465 -73 467 -70T471 -61H479Q493 -60 503 -63T514 -84ZM488 -89H490Q496 -89 495 -83V-81Q493 -81 492 -80T489 -79H488V-89ZM586 -61V-120H569L570
-82Q570 -80 568 -80T564 -79Q566 -74 567 -70T569 -61H586ZM614 -63Q616 -61 622 -61Q627 -61 632 -63T642 -68Q647 -76 651 -89Q649 -100 643 -110T623 -120Q609 -120 601 -111T592 -87Q592 -78 599 -71T614 -63ZM629 -81Q625 -79 621 -79Q617 -79 614 -81T610
-89Q610 -102 624 -102H625Q632 -97 632 -90Q632 -86 629 -81ZM674 -61Q677 -66 680 -70T685 -79Q687 -78 687 -74T687 -66Q687 -62 689 -61H705V-120H690Q686 -115 683 -109T676 -96Q673 -99 673 -105T674 -117V-120H657V-82Q657 -80 655 -80T651 -79Q653 -74
654 -70T657 -61H674ZM752 -63Q755 -60 760 -60Q765 -60 770 -63T780 -68Q783 -73 786 -79T789 -91Q789 -104 781 -111T760 -119Q746 -119 738 -111T730 -89Q730 -80 737 -72T752 -63ZM760 -102Q771 -102 771 -90Q771 -85 767 -82T759 -79Q755 -79 756 -81Q748
-82 748 -91Q748 -102 760 -102ZM811 -61Q815 -66 818 -70T823 -79Q825 -78 825 -74T824 -66Q824 -63 826 -61H843V-120H828Q826 -114 822 -109T815 -98Q812 -100 813 -106T814 -115L813 -118Q811 -120 805 -120H795V-82Q795 -80 793 -80T791 -77Q791 -72 793 -69T795
-61H811ZM508 -158Q507 -163 506 -168T503 -178H488Q490 -181 495 -180T503 -180H506Q506 -181 506 -181T507 -183Q507 -186 506 -189T504 -195Q502 -196 499 -196T493 -195Q489 -195 488 -197Q490 -199 496 -199T505 -198L508 -199Q506 -204 506 -208T503 -217H469V-181Q469
-179 467 -179T465 -176Q465 -174 467 -168T471 -159L477 -160Q484 -160 490 -159T504 -157L508 -158ZM553 -158Q551 -169 547 -178H532Q532 -183 538 -182T548 -181Q549 -181 549 -181T551 -182Q550 -190 545 -199H532V-217H514Q512 -210 513 -204T514 -189Q514
-184 512 -180T510 -174Q513 -172 513 -168T516 -159L522 -160Q529 -160 535 -159T548 -157L553 -158ZM715 -158Q713 -163 712 -171T702 -178V-217H683V-180Q683 -177 680 -177T675 -178H674Q674 -173 675 -169T677 -159L683 -160Q690 -160 696 -159T710 -157L715
-158ZM737 -219H731V-217Q727 -217 722 -216T717 -210Q720 -205 718 -199Q722 -197 722 -197Q726 -197 729 -199T737 -201L739 -200Q739 -197 735 -196T727 -192T719 -187T715 -176Q715 -166 724 -162T741 -158Q748 -158 756 -161V-164Q756 -168 755 -169T754 -176Q752
-178 751 -178Q748 -178 746 -177T740 -176Q736 -176 735 -178Q743 -180 751 -184T759 -199Q759 -206 752 -212T737 -219ZM813 -219H808V-217Q795 -216 788 -208T781 -187Q781 -174 790 -167T812 -159Q822 -159 830 -165Q828 -170 826 -173T823 -182Q819 -178 811
-178Q808 -178 805 -179T800 -184V-193Q800 -196 803 -197T809 -198Q813 -198 816 -197T823 -196Q824 -196 824 -197Q825 -201 826 -203T830 -210Q828 -215 823 -215T813 -219ZM80 -159H99Q100 -164 101 -169T102 -180Q104 -175 106 -170T108 -159H123Q125 -164
125 -169T128 -180Q132 -176 132 -170T134 -159H171V-162Q171 -167 172 -170T173 -178Q178 -176 178 -170T181 -159H195Q195 -165 197 -170T199 -180Q203 -176 203 -170T205 -159H242Q244 -164 244 -169T246 -180Q248 -175 249 -170T251 -159H266Q268 -164 269
-169T272 -180Q275 -176 275 -170T277 -159H294Q293 -174 289 -188T283 -217H264V-215Q265 -210 263 -206T261 -197Q257 -201 256 -206T255 -217H236Q233 -204 231 -192T223 -167Q215 -193 212 -217H194Q192 -212 191 -208T188 -199Q184 -202 184 -207T182 -217H164Q162
-203 159 -191T153 -165Q147 -177 146 -190T140 -217H121V-215Q122 -210 119 -206T117 -197Q114 -201 113 -206T112 -217H93Q91 -203 87 -189T80 -159ZM337 -159V-178H346Q349 -176 348 -171T348 -162V-159Q351 -160 353 -160T359 -159Q361 -159 363 -159T367 -161V-217H348V-197H339Q336
-199 336 -205T337 -214V-217H318V-184Q319 -183 319 -181Q319 -179 317 -179T315 -176Q315 -171 316 -168T318 -159H337ZM369 -159H387L393 -171Q395 -169 395 -166T398 -159H417Q415 -168 412 -174T406 -186T402 -199T402 -217H383Q383 -199 382 -192T379 -182T375
-175T369 -159ZM439 -206V-217H421V-180Q421 -178 419 -178T415 -178Q417 -173 418 -169T421 -159H430Q441 -159 452 -163T463 -182Q463 -193 452 -204H451Q447 -204 446 -205T439 -206ZM439 -187L441 -188Q445 -188 445 -183Q445 -178 441 -178H439V-187ZM584
-219V-217Q570 -217 563 -208T556 -185Q556 -174 565 -167T586 -160Q599 -160 607 -168T616 -189Q616 -200 606 -210T584 -219ZM592 -178Q590 -178 590 -178T587 -177Q575 -177 575 -189Q575 -193 579 -199Q581 -199 582 -199T585 -200Q595 -200 597 -187Q596 -185
595 -183T592 -178ZM640 -159Q641 -165 644 -169T650 -178Q652 -176 652 -171T651 -162V-159H670V-217H653Q650 -211 647 -205T638 -195V-217H622V-180Q622 -178 620 -178T616 -178Q618 -173 619 -169T622 -159H640ZM860 -219V-217Q849 -217 841 -209T833 -189Q833
-176 840 -168T862 -160Q873 -160 882 -167T892 -187Q892 -200 883 -210T860 -219ZM860 -200Q869 -200 873 -193V-190Q874 -183 870 -180T860 -178H856Q852 -182 852 -188Q852 -197 860 -200ZM897 -159H916Q918 -162 919 -165T925 -171Q928 -169 930 -166T934 -159H953V-217H934V-191Q934
-190 933 -190Q931 -190 930 -193T927 -199H926Q921 -199 921 -195T916 -189V-217H897V-181Q897 -179 895 -179T893 -176Q893 -172 895 -168T897 -159ZM303 -219Q295 -215 295 -208Q295 -199 305 -199Q314 -199 314 -208Q314 -219 303 -219ZM771 -219H769Q765 -219
763 -215T761 -208Q761 -198 771 -198Q775 -198 776 -201T780 -206V-209Q780 -214 777 -215T771 -219Z" />
<glyph unicode="6" glyph-name="six" horiz-adv-x="988" d="M988 435Q988 432 988 424T986 408T984 391T983 379Q981 367 978 355T972 331Q950 249 904 182T795 66T655 -10T493 -37Q387 -37 296 3T138 113T34 276T0 474Q2 475 2 478Q4 541 21 598T71 709Q82 728
99 751T136 796T178 836T220 865L221 869H225L227 872Q230 874 233 875T240 878Q246 882 251 885T262 893Q276 901 291 907T322 919Q363 935 405 942T492 950Q588 950 678 915T838 811Q861 788 882 763T920 708Q925 699 929 689T938 670Q941 664 944 659T950 648Q958
632 962 616T972 582Q982 543 985 510T988 435ZM754 677Q719 674 684 674T613 675H586Q574 639 565 603T543 530Q549 529 555 529T567 530Q576 530 581 528V204H726V363H836Q844 396 854 428T873 495H726Q727 500 727 505T726 516Q726 519 726 522T728 528H851Q860
568 872 607T895 686H757Q752 684 754 677ZM134 670Q125 635 114 600T95 530Q101 529 107 529T119 530Q122 530 125 530T132 528V204H277V329Q277 340 277 350T279 372Q293 371 307 371T335 372Q343 372 351 372T369 370V206Q383 204 397 204T425 204Q447 204 469
204T514 204V675Q491 674 469 675T425 676Q396 676 369 673V521H277Q277 544 277 568T278 615Q278 645 275 675H138Q136 675 136 673T134 670ZM562 -63Q560 -67 560 -71T556 -79Q553 -79 550 -78T543 -77Q541 -77 540 -78Q543 -83 549 -84T560 -89Q563 -94 563
-100Q563 -107 560 -113Q552 -120 539 -120Q530 -120 521 -117V-115Q521 -110 522 -107T525 -98Q529 -99 532 -100T540 -102H543Q543 -97 538 -96T529 -94Q526 -89 523 -87T519 -78Q519 -68 529 -64T547 -60Q554 -60 562 -63ZM184 -61H221V-62Q222 -67 220 -70T218
-79Q215 -80 212 -80T206 -79Q202 -79 201 -81Q203 -84 208 -84T217 -83H220Q219 -88 217 -91T216 -100H201V-120H191Q184 -120 182 -118L183 -82Q183 -81 179 -79Q181 -74 181 -70T184 -61ZM246 -61Q246 -67 246 -73T245 -85Q245 -95 249 -102H252Q257 -102 257
-96T257 -86V-61H267Q273 -61 275 -63L276 -81Q276 -94 273 -107T252 -120Q241 -120 231 -111Q229 -103 229 -97T229 -82Q229 -80 227 -80T223 -79Q225 -74 226 -70T229 -61H246ZM301 -63Q301 -72 301 -81T301 -100Q302 -102 305 -102T311 -102H313Q311 -107 310
-111T307 -120H283V-82Q283 -80 281 -80T277 -79Q279 -75 280 -71T283 -61H293Q299 -61 301 -63ZM335 -61Q335 -71 335 -80T335 -100Q335 -102 338 -102T344 -102H346V-104Q347 -109 345 -112T342 -120Q338 -120 335 -120T327 -121Q320 -121 316 -118L317 -83Q317
-79 313 -79Q315 -74 315 -70T318 -61H335ZM367 -61H385Q387 -67 389 -72T393 -85Q398 -81 399 -74T402 -61H421Q418 -76 413 -91T402 -120H387Q382 -106 377 -91T367 -61ZM424 -61H463Q461 -66 460 -70T458 -79Q456 -80 453 -80T448 -79Q444 -79 443 -81Q445 -84
450 -84T459 -83H462Q461 -87 460 -90T458 -98H443Q445 -101 450 -100T459 -100H462V-101Q462 -106 460 -110T456 -120H424V-81Q424 -79 422 -79T419 -79Q421 -75 422 -71T424 -61ZM514 -84Q514 -89 513 -94T506 -102Q506 -107 510 -110T514 -119V-120Q511 -121
506 -121Q500 -121 495 -119T489 -109Q487 -110 487 -112T487 -116Q487 -120 486 -120H469V-82Q469 -80 467 -80T465 -78Q465 -73 467 -70T471 -61H479Q493 -60 503 -63T514 -84ZM488 -89H490Q496 -89 495 -83V-81Q493 -81 492 -80T489 -79H488V-89ZM586 -61V-120H569L570
-82Q570 -80 568 -80T564 -79Q566 -74 567 -70T569 -61H586ZM614 -63Q616 -61 622 -61Q627 -61 632 -63T642 -68Q647 -76 651 -89Q649 -100 643 -110T623 -120Q609 -120 601 -111T592 -87Q592 -78 599 -71T614 -63ZM629 -81Q625 -79 621 -79Q617 -79 614 -81T610
-89Q610 -102 624 -102H625Q632 -97 632 -90Q632 -86 629 -81ZM674 -61Q677 -66 680 -70T685 -79Q687 -78 687 -74T687 -66Q687 -62 689 -61H705V-120H690Q686 -115 683 -109T676 -96Q673 -99 673 -105T674 -117V-120H657V-82Q657 -80 655 -80T651 -79Q653 -74
654 -70T657 -61H674ZM752 -63Q755 -60 760 -60Q765 -60 770 -63T780 -68Q783 -73 786 -79T789 -91Q789 -104 781 -111T760 -119Q746 -119 738 -111T730 -89Q730 -80 737 -72T752 -63ZM760 -102Q771 -102 771 -90Q771 -85 767 -82T759 -79Q755 -79 756 -81Q748
-82 748 -91Q748 -102 760 -102ZM811 -61Q815 -66 818 -70T823 -79Q825 -78 825 -74T824 -66Q824 -63 826 -61H843V-120H828Q826 -114 822 -109T815 -98Q812 -100 813 -106T814 -115L813 -118Q811 -120 805 -120H795V-82Q795 -80 793 -80T791 -77Q791 -72 793 -69T795
-61H811ZM508 -158Q507 -163 506 -168T503 -178H488Q490 -181 495 -180T503 -180H506Q506 -181 506 -181T507 -183Q507 -186 506 -189T504 -195Q502 -196 499 -196T493 -195Q489 -195 488 -197Q490 -199 496 -199T505 -198L508 -199Q506 -204 506 -208T503 -217H469V-181Q469
-179 467 -179T465 -176Q465 -174 467 -168T471 -159L477 -160Q484 -160 490 -159T504 -157L508 -158ZM553 -158Q551 -169 547 -178H532Q532 -183 538 -182T548 -181Q549 -181 549 -181T551 -182Q550 -190 545 -199H532V-217H514Q512 -210 513 -204T514 -189Q514
-184 512 -180T510 -174Q513 -172 513 -168T516 -159L522 -160Q529 -160 535 -159T548 -157L553 -158ZM715 -158Q713 -163 712 -171T702 -178V-217H683V-180Q683 -177 680 -177T675 -178H674Q674 -173 675 -169T677 -159L683 -160Q690 -160 696 -159T710 -157L715
-158ZM737 -219H731V-217Q727 -217 722 -216T717 -210Q720 -205 718 -199Q722 -197 722 -197Q726 -197 729 -199T737 -201L739 -200Q739 -197 735 -196T727 -192T719 -187T715 -176Q715 -166 724 -162T741 -158Q748 -158 756 -161V-164Q756 -168 755 -169T754 -176Q752
-178 751 -178Q748 -178 746 -177T740 -176Q736 -176 735 -178Q743 -180 751 -184T759 -199Q759 -206 752 -212T737 -219ZM813 -219H808V-217Q795 -216 788 -208T781 -187Q781 -174 790 -167T812 -159Q822 -159 830 -165Q828 -170 826 -173T823 -182Q819 -178 811
-178Q808 -178 805 -179T800 -184V-193Q800 -196 803 -197T809 -198Q813 -198 816 -197T823 -196Q824 -196 824 -197Q825 -201 826 -203T830 -210Q828 -215 823 -215T813 -219ZM80 -159H99Q100 -164 101 -169T102 -180Q104 -175 106 -170T108 -159H123Q125 -164
125 -169T128 -180Q132 -176 132 -170T134 -159H171V-162Q171 -167 172 -170T173 -178Q178 -176 178 -170T181 -159H195Q195 -165 197 -170T199 -180Q203 -176 203 -170T205 -159H242Q244 -164 244 -169T246 -180Q248 -175 249 -170T251 -159H266Q268 -164 269
-169T272 -180Q275 -176 275 -170T277 -159H294Q293 -174 289 -188T283 -217H264V-215Q265 -210 263 -206T261 -197Q257 -201 256 -206T255 -217H236Q233 -204 231 -192T223 -167Q215 -193 212 -217H194Q192 -212 191 -208T188 -199Q184 -202 184 -207T182 -217H164Q162
-203 159 -191T153 -165Q147 -177 146 -190T140 -217H121V-215Q122 -210 119 -206T117 -197Q114 -201 113 -206T112 -217H93Q91 -203 87 -189T80 -159ZM337 -159V-178H346Q349 -176 348 -171T348 -162V-159Q351 -160 353 -160T359 -159Q361 -159 363 -159T367 -161V-217H348V-197H339Q336
-199 336 -205T337 -214V-217H318V-184Q319 -183 319 -181Q319 -179 317 -179T315 -176Q315 -171 316 -168T318 -159H337ZM369 -159H387L393 -171Q395 -169 395 -166T398 -159H417Q415 -168 412 -174T406 -186T402 -199T402 -217H383Q383 -199 382 -192T379 -182T375
-175T369 -159ZM439 -206V-217H421V-180Q421 -178 419 -178T415 -178Q417 -173 418 -169T421 -159H430Q441 -159 452 -163T463 -182Q463 -193 452 -204H451Q447 -204 446 -205T439 -206ZM439 -187L441 -188Q445 -188 445 -183Q445 -178 441 -178H439V-187ZM584
-219V-217Q570 -217 563 -208T556 -185Q556 -174 565 -167T586 -160Q599 -160 607 -168T616 -189Q616 -200 606 -210T584 -219ZM592 -178Q590 -178 590 -178T587 -177Q575 -177 575 -189Q575 -193 579 -199Q581 -199 582 -199T585 -200Q595 -200 597 -187Q596 -185
595 -183T592 -178ZM640 -159Q641 -165 644 -169T650 -178Q652 -176 652 -171T651 -162V-159H670V-217H653Q650 -211 647 -205T638 -195V-217H622V-180Q622 -178 620 -178T616 -178Q618 -173 619 -169T622 -159H640ZM860 -219V-217Q849 -217 841 -209T833 -189Q833
-176 840 -168T862 -160Q873 -160 882 -167T892 -187Q892 -200 883 -210T860 -219ZM860 -200Q869 -200 873 -193V-190Q874 -183 870 -180T860 -178H856Q852 -182 852 -188Q852 -197 860 -200ZM897 -159H916Q918 -162 919 -165T925 -171Q928 -169 930 -166T934 -159H953V-217H934V-191Q934
-190 933 -190Q931 -190 930 -193T927 -199H926Q921 -199 921 -195T916 -189V-217H897V-181Q897 -179 895 -179T893 -176Q893 -172 895 -168T897 -159ZM303 -219Q295 -215 295 -208Q295 -199 305 -199Q314 -199 314 -208Q314 -219 303 -219ZM771 -219H769Q765 -219
763 -215T761 -208Q761 -198 771 -198Q775 -198 776 -201T780 -206V-209Q780 -214 777 -215T771 -219Z" />
<glyph unicode="7" glyph-name="seven" horiz-adv-x="988" d="M988 435Q988 432 988 424T986 408T984 391T983 379Q981 367 978 355T972 331Q950 249 904 182T795 66T655 -10T493 -37Q387 -37 296 3T138 113T34 276T0 474Q2 475 2 478Q4 541 21 598T71 709Q82
728 99 751T136 796T178 836T220 865L221 869H225L227 872Q230 874 233 875T240 878Q246 882 251 885T262 893Q276 901 291 907T322 919Q363 935 405 942T492 950Q588 950 678 915T838 811Q861 788 882 763T920 708Q925 699 929 689T938 670Q941 664 944 659T950
648Q958 632 962 616T972 582Q982 543 985 510T988 435ZM754 677Q719 674 684 674T613 675H586Q574 639 565 603T543 530Q549 529 555 529T567 530Q576 530 581 528V204H726V363H836Q844 396 854 428T873 495H726Q727 500 727 505T726 516Q726 519 726 522T728
528H851Q860 568 872 607T895 686H757Q752 684 754 677ZM134 670Q125 635 114 600T95 530Q101 529 107 529T119 530Q122 530 125 530T132 528V204H277V329Q277 340 277 350T279 372Q293 371 307 371T335 372Q343 372 351 372T369 370V206Q383 204 397 204T425 204Q447
204 469 204T514 204V675Q491 674 469 675T425 676Q396 676 369 673V521H277Q277 544 277 568T278 615Q278 645 275 675H138Q136 675 136 673T134 670ZM562 -63Q560 -67 560 -71T556 -79Q553 -79 550 -78T543 -77Q541 -77 540 -78Q543 -83 549 -84T560 -89Q563
-94 563 -100Q563 -107 560 -113Q552 -120 539 -120Q530 -120 521 -117V-115Q521 -110 522 -107T525 -98Q529 -99 532 -100T540 -102H543Q543 -97 538 -96T529 -94Q526 -89 523 -87T519 -78Q519 -68 529 -64T547 -60Q554 -60 562 -63ZM184 -61H221V-62Q222 -67
220 -70T218 -79Q215 -80 212 -80T206 -79Q202 -79 201 -81Q203 -84 208 -84T217 -83H220Q219 -88 217 -91T216 -100H201V-120H191Q184 -120 182 -118L183 -82Q183 -81 179 -79Q181 -74 181 -70T184 -61ZM246 -61Q246 -67 246 -73T245 -85Q245 -95 249 -102H252Q257
-102 257 -96T257 -86V-61H267Q273 -61 275 -63L276 -81Q276 -94 273 -107T252 -120Q241 -120 231 -111Q229 -103 229 -97T229 -82Q229 -80 227 -80T223 -79Q225 -74 226 -70T229 -61H246ZM301 -63Q301 -72 301 -81T301 -100Q302 -102 305 -102T311 -102H313Q311
-107 310 -111T307 -120H283V-82Q283 -80 281 -80T277 -79Q279 -75 280 -71T283 -61H293Q299 -61 301 -63ZM335 -61Q335 -71 335 -80T335 -100Q335 -102 338 -102T344 -102H346V-104Q347 -109 345 -112T342 -120Q338 -120 335 -120T327 -121Q320 -121 316 -118L317
-83Q317 -79 313 -79Q315 -74 315 -70T318 -61H335ZM367 -61H385Q387 -67 389 -72T393 -85Q398 -81 399 -74T402 -61H421Q418 -76 413 -91T402 -120H387Q382 -106 377 -91T367 -61ZM424 -61H463Q461 -66 460 -70T458 -79Q456 -80 453 -80T448 -79Q444 -79 443 -81Q445
-84 450 -84T459 -83H462Q461 -87 460 -90T458 -98H443Q445 -101 450 -100T459 -100H462V-101Q462 -106 460 -110T456 -120H424V-81Q424 -79 422 -79T419 -79Q421 -75 422 -71T424 -61ZM514 -84Q514 -89 513 -94T506 -102Q506 -107 510 -110T514 -119V-120Q511
-121 506 -121Q500 -121 495 -119T489 -109Q487 -110 487 -112T487 -116Q487 -120 486 -120H469V-82Q469 -80 467 -80T465 -78Q465 -73 467 -70T471 -61H479Q493 -60 503 -63T514 -84ZM488 -89H490Q496 -89 495 -83V-81Q493 -81 492 -80T489 -79H488V-89ZM586 -61V-120H569L570
-82Q570 -80 568 -80T564 -79Q566 -74 567 -70T569 -61H586ZM614 -63Q616 -61 622 -61Q627 -61 632 -63T642 -68Q647 -76 651 -89Q649 -100 643 -110T623 -120Q609 -120 601 -111T592 -87Q592 -78 599 -71T614 -63ZM629 -81Q625 -79 621 -79Q617 -79 614 -81T610
-89Q610 -102 624 -102H625Q632 -97 632 -90Q632 -86 629 -81ZM674 -61Q677 -66 680 -70T685 -79Q687 -78 687 -74T687 -66Q687 -62 689 -61H705V-120H690Q686 -115 683 -109T676 -96Q673 -99 673 -105T674 -117V-120H657V-82Q657 -80 655 -80T651 -79Q653 -74
654 -70T657 -61H674ZM752 -63Q755 -60 760 -60Q765 -60 770 -63T780 -68Q783 -73 786 -79T789 -91Q789 -104 781 -111T760 -119Q746 -119 738 -111T730 -89Q730 -80 737 -72T752 -63ZM760 -102Q771 -102 771 -90Q771 -85 767 -82T759 -79Q755 -79 756 -81Q748
-82 748 -91Q748 -102 760 -102ZM811 -61Q815 -66 818 -70T823 -79Q825 -78 825 -74T824 -66Q824 -63 826 -61H843V-120H828Q826 -114 822 -109T815 -98Q812 -100 813 -106T814 -115L813 -118Q811 -120 805 -120H795V-82Q795 -80 793 -80T791 -77Q791 -72 793 -69T795
-61H811ZM508 -158Q507 -163 506 -168T503 -178H488Q490 -181 495 -180T503 -180H506Q506 -181 506 -181T507 -183Q507 -186 506 -189T504 -195Q502 -196 499 -196T493 -195Q489 -195 488 -197Q490 -199 496 -199T505 -198L508 -199Q506 -204 506 -208T503 -217H469V-181Q469
-179 467 -179T465 -176Q465 -174 467 -168T471 -159L477 -160Q484 -160 490 -159T504 -157L508 -158ZM553 -158Q551 -169 547 -178H532Q532 -183 538 -182T548 -181Q549 -181 549 -181T551 -182Q550 -190 545 -199H532V-217H514Q512 -210 513 -204T514 -189Q514
-184 512 -180T510 -174Q513 -172 513 -168T516 -159L522 -160Q529 -160 535 -159T548 -157L553 -158ZM715 -158Q713 -163 712 -171T702 -178V-217H683V-180Q683 -177 680 -177T675 -178H674Q674 -173 675 -169T677 -159L683 -160Q690 -160 696 -159T710 -157L715
-158ZM737 -219H731V-217Q727 -217 722 -216T717 -210Q720 -205 718 -199Q722 -197 722 -197Q726 -197 729 -199T737 -201L739 -200Q739 -197 735 -196T727 -192T719 -187T715 -176Q715 -166 724 -162T741 -158Q748 -158 756 -161V-164Q756 -168 755 -169T754 -176Q752
-178 751 -178Q748 -178 746 -177T740 -176Q736 -176 735 -178Q743 -180 751 -184T759 -199Q759 -206 752 -212T737 -219ZM813 -219H808V-217Q795 -216 788 -208T781 -187Q781 -174 790 -167T812 -159Q822 -159 830 -165Q828 -170 826 -173T823 -182Q819 -178 811
-178Q808 -178 805 -179T800 -184V-193Q800 -196 803 -197T809 -198Q813 -198 816 -197T823 -196Q824 -196 824 -197Q825 -201 826 -203T830 -210Q828 -215 823 -215T813 -219ZM80 -159H99Q100 -164 101 -169T102 -180Q104 -175 106 -170T108 -159H123Q125 -164
125 -169T128 -180Q132 -176 132 -170T134 -159H171V-162Q171 -167 172 -170T173 -178Q178 -176 178 -170T181 -159H195Q195 -165 197 -170T199 -180Q203 -176 203 -170T205 -159H242Q244 -164 244 -169T246 -180Q248 -175 249 -170T251 -159H266Q268 -164 269
-169T272 -180Q275 -176 275 -170T277 -159H294Q293 -174 289 -188T283 -217H264V-215Q265 -210 263 -206T261 -197Q257 -201 256 -206T255 -217H236Q233 -204 231 -192T223 -167Q215 -193 212 -217H194Q192 -212 191 -208T188 -199Q184 -202 184 -207T182 -217H164Q162
-203 159 -191T153 -165Q147 -177 146 -190T140 -217H121V-215Q122 -210 119 -206T117 -197Q114 -201 113 -206T112 -217H93Q91 -203 87 -189T80 -159ZM337 -159V-178H346Q349 -176 348 -171T348 -162V-159Q351 -160 353 -160T359 -159Q361 -159 363 -159T367 -161V-217H348V-197H339Q336
-199 336 -205T337 -214V-217H318V-184Q319 -183 319 -181Q319 -179 317 -179T315 -176Q315 -171 316 -168T318 -159H337ZM369 -159H387L393 -171Q395 -169 395 -166T398 -159H417Q415 -168 412 -174T406 -186T402 -199T402 -217H383Q383 -199 382 -192T379 -182T375
-175T369 -159ZM439 -206V-217H421V-180Q421 -178 419 -178T415 -178Q417 -173 418 -169T421 -159H430Q441 -159 452 -163T463 -182Q463 -193 452 -204H451Q447 -204 446 -205T439 -206ZM439 -187L441 -188Q445 -188 445 -183Q445 -178 441 -178H439V-187ZM584
-219V-217Q570 -217 563 -208T556 -185Q556 -174 565 -167T586 -160Q599 -160 607 -168T616 -189Q616 -200 606 -210T584 -219ZM592 -178Q590 -178 590 -178T587 -177Q575 -177 575 -189Q575 -193 579 -199Q581 -199 582 -199T585 -200Q595 -200 597 -187Q596 -185
595 -183T592 -178ZM640 -159Q641 -165 644 -169T650 -178Q652 -176 652 -171T651 -162V-159H670V-217H653Q650 -211 647 -205T638 -195V-217H622V-180Q622 -178 620 -178T616 -178Q618 -173 619 -169T622 -159H640ZM860 -219V-217Q849 -217 841 -209T833 -189Q833
-176 840 -168T862 -160Q873 -160 882 -167T892 -187Q892 -200 883 -210T860 -219ZM860 -200Q869 -200 873 -193V-190Q874 -183 870 -180T860 -178H856Q852 -182 852 -188Q852 -197 860 -200ZM897 -159H916Q918 -162 919 -165T925 -171Q928 -169 930 -166T934 -159H953V-217H934V-191Q934
-190 933 -190Q931 -190 930 -193T927 -199H926Q921 -199 921 -195T916 -189V-217H897V-181Q897 -179 895 -179T893 -176Q893 -172 895 -168T897 -159ZM303 -219Q295 -215 295 -208Q295 -199 305 -199Q314 -199 314 -208Q314 -219 303 -219ZM771 -219H769Q765 -219
763 -215T761 -208Q761 -198 771 -198Q775 -198 776 -201T780 -206V-209Q780 -214 777 -215T771 -219Z" />
<glyph unicode="8" glyph-name="eight" horiz-adv-x="988" d="M988 435Q988 432 988 424T986 408T984 391T983 379Q981 367 978 355T972 331Q950 249 904 182T795 66T655 -10T493 -37Q387 -37 296 3T138 113T34 276T0 474Q2 475 2 478Q4 541 21 598T71 709Q82
728 99 751T136 796T178 836T220 865L221 869H225L227 872Q230 874 233 875T240 878Q246 882 251 885T262 893Q276 901 291 907T322 919Q363 935 405 942T492 950Q588 950 678 915T838 811Q861 788 882 763T920 708Q925 699 929 689T938 670Q941 664 944 659T950
648Q958 632 962 616T972 582Q982 543 985 510T988 435ZM754 677Q719 674 684 674T613 675H586Q574 639 565 603T543 530Q549 529 555 529T567 530Q576 530 581 528V204H726V363H836Q844 396 854 428T873 495H726Q727 500 727 505T726 516Q726 519 726 522T728
528H851Q860 568 872 607T895 686H757Q752 684 754 677ZM134 670Q125 635 114 600T95 530Q101 529 107 529T119 530Q122 530 125 530T132 528V204H277V329Q277 340 277 350T279 372Q293 371 307 371T335 372Q343 372 351 372T369 370V206Q383 204 397 204T425 204Q447
204 469 204T514 204V675Q491 674 469 675T425 676Q396 676 369 673V521H277Q277 544 277 568T278 615Q278 645 275 675H138Q136 675 136 673T134 670ZM562 -63Q560 -67 560 -71T556 -79Q553 -79 550 -78T543 -77Q541 -77 540 -78Q543 -83 549 -84T560 -89Q563
-94 563 -100Q563 -107 560 -113Q552 -120 539 -120Q530 -120 521 -117V-115Q521 -110 522 -107T525 -98Q529 -99 532 -100T540 -102H543Q543 -97 538 -96T529 -94Q526 -89 523 -87T519 -78Q519 -68 529 -64T547 -60Q554 -60 562 -63ZM184 -61H221V-62Q222 -67
220 -70T218 -79Q215 -80 212 -80T206 -79Q202 -79 201 -81Q203 -84 208 -84T217 -83H220Q219 -88 217 -91T216 -100H201V-120H191Q184 -120 182 -118L183 -82Q183 -81 179 -79Q181 -74 181 -70T184 -61ZM246 -61Q246 -67 246 -73T245 -85Q245 -95 249 -102H252Q257
-102 257 -96T257 -86V-61H267Q273 -61 275 -63L276 -81Q276 -94 273 -107T252 -120Q241 -120 231 -111Q229 -103 229 -97T229 -82Q229 -80 227 -80T223 -79Q225 -74 226 -70T229 -61H246ZM301 -63Q301 -72 301 -81T301 -100Q302 -102 305 -102T311 -102H313Q311
-107 310 -111T307 -120H283V-82Q283 -80 281 -80T277 -79Q279 -75 280 -71T283 -61H293Q299 -61 301 -63ZM335 -61Q335 -71 335 -80T335 -100Q335 -102 338 -102T344 -102H346V-104Q347 -109 345 -112T342 -120Q338 -120 335 -120T327 -121Q320 -121 316 -118L317
-83Q317 -79 313 -79Q315 -74 315 -70T318 -61H335ZM367 -61H385Q387 -67 389 -72T393 -85Q398 -81 399 -74T402 -61H421Q418 -76 413 -91T402 -120H387Q382 -106 377 -91T367 -61ZM424 -61H463Q461 -66 460 -70T458 -79Q456 -80 453 -80T448 -79Q444 -79 443 -81Q445
-84 450 -84T459 -83H462Q461 -87 460 -90T458 -98H443Q445 -101 450 -100T459 -100H462V-101Q462 -106 460 -110T456 -120H424V-81Q424 -79 422 -79T419 -79Q421 -75 422 -71T424 -61ZM514 -84Q514 -89 513 -94T506 -102Q506 -107 510 -110T514 -119V-120Q511
-121 506 -121Q500 -121 495 -119T489 -109Q487 -110 487 -112T487 -116Q487 -120 486 -120H469V-82Q469 -80 467 -80T465 -78Q465 -73 467 -70T471 -61H479Q493 -60 503 -63T514 -84ZM488 -89H490Q496 -89 495 -83V-81Q493 -81 492 -80T489 -79H488V-89ZM586 -61V-120H569L570
-82Q570 -80 568 -80T564 -79Q566 -74 567 -70T569 -61H586ZM614 -63Q616 -61 622 -61Q627 -61 632 -63T642 -68Q647 -76 651 -89Q649 -100 643 -110T623 -120Q609 -120 601 -111T592 -87Q592 -78 599 -71T614 -63ZM629 -81Q625 -79 621 -79Q617 -79 614 -81T610
-89Q610 -102 624 -102H625Q632 -97 632 -90Q632 -86 629 -81ZM674 -61Q677 -66 680 -70T685 -79Q687 -78 687 -74T687 -66Q687 -62 689 -61H705V-120H690Q686 -115 683 -109T676 -96Q673 -99 673 -105T674 -117V-120H657V-82Q657 -80 655 -80T651 -79Q653 -74
654 -70T657 -61H674ZM752 -63Q755 -60 760 -60Q765 -60 770 -63T780 -68Q783 -73 786 -79T789 -91Q789 -104 781 -111T760 -119Q746 -119 738 -111T730 -89Q730 -80 737 -72T752 -63ZM760 -102Q771 -102 771 -90Q771 -85 767 -82T759 -79Q755 -79 756 -81Q748
-82 748 -91Q748 -102 760 -102ZM811 -61Q815 -66 818 -70T823 -79Q825 -78 825 -74T824 -66Q824 -63 826 -61H843V-120H828Q826 -114 822 -109T815 -98Q812 -100 813 -106T814 -115L813 -118Q811 -120 805 -120H795V-82Q795 -80 793 -80T791 -77Q791 -72 793 -69T795
-61H811ZM508 -158Q507 -163 506 -168T503 -178H488Q490 -181 495 -180T503 -180H506Q506 -181 506 -181T507 -183Q507 -186 506 -189T504 -195Q502 -196 499 -196T493 -195Q489 -195 488 -197Q490 -199 496 -199T505 -198L508 -199Q506 -204 506 -208T503 -217H469V-181Q469
-179 467 -179T465 -176Q465 -174 467 -168T471 -159L477 -160Q484 -160 490 -159T504 -157L508 -158ZM553 -158Q551 -169 547 -178H532Q532 -183 538 -182T548 -181Q549 -181 549 -181T551 -182Q550 -190 545 -199H532V-217H514Q512 -210 513 -204T514 -189Q514
-184 512 -180T510 -174Q513 -172 513 -168T516 -159L522 -160Q529 -160 535 -159T548 -157L553 -158ZM715 -158Q713 -163 712 -171T702 -178V-217H683V-180Q683 -177 680 -177T675 -178H674Q674 -173 675 -169T677 -159L683 -160Q690 -160 696 -159T710 -157L715
-158ZM737 -219H731V-217Q727 -217 722 -216T717 -210Q720 -205 718 -199Q722 -197 722 -197Q726 -197 729 -199T737 -201L739 -200Q739 -197 735 -196T727 -192T719 -187T715 -176Q715 -166 724 -162T741 -158Q748 -158 756 -161V-164Q756 -168 755 -169T754 -176Q752
-178 751 -178Q748 -178 746 -177T740 -176Q736 -176 735 -178Q743 -180 751 -184T759 -199Q759 -206 752 -212T737 -219ZM813 -219H808V-217Q795 -216 788 -208T781 -187Q781 -174 790 -167T812 -159Q822 -159 830 -165Q828 -170 826 -173T823 -182Q819 -178 811
-178Q808 -178 805 -179T800 -184V-193Q800 -196 803 -197T809 -198Q813 -198 816 -197T823 -196Q824 -196 824 -197Q825 -201 826 -203T830 -210Q828 -215 823 -215T813 -219ZM80 -159H99Q100 -164 101 -169T102 -180Q104 -175 106 -170T108 -159H123Q125 -164
125 -169T128 -180Q132 -176 132 -170T134 -159H171V-162Q171 -167 172 -170T173 -178Q178 -176 178 -170T181 -159H195Q195 -165 197 -170T199 -180Q203 -176 203 -170T205 -159H242Q244 -164 244 -169T246 -180Q248 -175 249 -170T251 -159H266Q268 -164 269
-169T272 -180Q275 -176 275 -170T277 -159H294Q293 -174 289 -188T283 -217H264V-215Q265 -210 263 -206T261 -197Q257 -201 256 -206T255 -217H236Q233 -204 231 -192T223 -167Q215 -193 212 -217H194Q192 -212 191 -208T188 -199Q184 -202 184 -207T182 -217H164Q162
-203 159 -191T153 -165Q147 -177 146 -190T140 -217H121V-215Q122 -210 119 -206T117 -197Q114 -201 113 -206T112 -217H93Q91 -203 87 -189T80 -159ZM337 -159V-178H346Q349 -176 348 -171T348 -162V-159Q351 -160 353 -160T359 -159Q361 -159 363 -159T367 -161V-217H348V-197H339Q336
-199 336 -205T337 -214V-217H318V-184Q319 -183 319 -181Q319 -179 317 -179T315 -176Q315 -171 316 -168T318 -159H337ZM369 -159H387L393 -171Q395 -169 395 -166T398 -159H417Q415 -168 412 -174T406 -186T402 -199T402 -217H383Q383 -199 382 -192T379 -182T375
-175T369 -159ZM439 -206V-217H421V-180Q421 -178 419 -178T415 -178Q417 -173 418 -169T421 -159H430Q441 -159 452 -163T463 -182Q463 -193 452 -204H451Q447 -204 446 -205T439 -206ZM439 -187L441 -188Q445 -188 445 -183Q445 -178 441 -178H439V-187ZM584
-219V-217Q570 -217 563 -208T556 -185Q556 -174 565 -167T586 -160Q599 -160 607 -168T616 -189Q616 -200 606 -210T584 -219ZM592 -178Q590 -178 590 -178T587 -177Q575 -177 575 -189Q575 -193 579 -199Q581 -199 582 -199T585 -200Q595 -200 597 -187Q596 -185
595 -183T592 -178ZM640 -159Q641 -165 644 -169T650 -178Q652 -176 652 -171T651 -162V-159H670V-217H653Q650 -211 647 -205T638 -195V-217H622V-180Q622 -178 620 -178T616 -178Q618 -173 619 -169T622 -159H640ZM860 -219V-217Q849 -217 841 -209T833 -189Q833
-176 840 -168T862 -160Q873 -160 882 -167T892 -187Q892 -200 883 -210T860 -219ZM860 -200Q869 -200 873 -193V-190Q874 -183 870 -180T860 -178H856Q852 -182 852 -188Q852 -197 860 -200ZM897 -159H916Q918 -162 919 -165T925 -171Q928 -169 930 -166T934 -159H953V-217H934V-191Q934
-190 933 -190Q931 -190 930 -193T927 -199H926Q921 -199 921 -195T916 -189V-217H897V-181Q897 -179 895 -179T893 -176Q893 -172 895 -168T897 -159ZM303 -219Q295 -215 295 -208Q295 -199 305 -199Q314 -199 314 -208Q314 -219 303 -219ZM771 -219H769Q765 -219
763 -215T761 -208Q761 -198 771 -198Q775 -198 776 -201T780 -206V-209Q780 -214 777 -215T771 -219Z" />
<glyph unicode="9" glyph-name="nine" horiz-adv-x="988" d="M988 435Q988 432 988 424T986 408T984 391T983 379Q981 367 978 355T972 331Q950 249 904 182T795 66T655 -10T493 -37Q387 -37 296 3T138 113T34 276T0 474Q2 475 2 478Q4 541 21 598T71 709Q82 728
99 751T136 796T178 836T220 865L221 869H225L227 872Q230 874 233 875T240 878Q246 882 251 885T262 893Q276 901 291 907T322 919Q363 935 405 942T492 950Q588 950 678 915T838 811Q861 788 882 763T920 708Q925 699 929 689T938 670Q941 664 944 659T950 648Q958
632 962 616T972 582Q982 543 985 510T988 435ZM754 677Q719 674 684 674T613 675H586Q574 639 565 603T543 530Q549 529 555 529T567 530Q576 530 581 528V204H726V363H836Q844 396 854 428T873 495H726Q727 500 727 505T726 516Q726 519 726 522T728 528H851Q860
568 872 607T895 686H757Q752 684 754 677ZM134 670Q125 635 114 600T95 530Q101 529 107 529T119 530Q122 530 125 530T132 528V204H277V329Q277 340 277 350T279 372Q293 371 307 371T335 372Q343 372 351 372T369 370V206Q383 204 397 204T425 204Q447 204 469
204T514 204V675Q491 674 469 675T425 676Q396 676 369 673V521H277Q277 544 277 568T278 615Q278 645 275 675H138Q136 675 136 673T134 670ZM562 -63Q560 -67 560 -71T556 -79Q553 -79 550 -78T543 -77Q541 -77 540 -78Q543 -83 549 -84T560 -89Q563 -94 563
-100Q563 -107 560 -113Q552 -120 539 -120Q530 -120 521 -117V-115Q521 -110 522 -107T525 -98Q529 -99 532 -100T540 -102H543Q543 -97 538 -96T529 -94Q526 -89 523 -87T519 -78Q519 -68 529 -64T547 -60Q554 -60 562 -63ZM184 -61H221V-62Q222 -67 220 -70T218
-79Q215 -80 212 -80T206 -79Q202 -79 201 -81Q203 -84 208 -84T217 -83H220Q219 -88 217 -91T216 -100H201V-120H191Q184 -120 182 -118L183 -82Q183 -81 179 -79Q181 -74 181 -70T184 -61ZM246 -61Q246 -67 246 -73T245 -85Q245 -95 249 -102H252Q257 -102 257
-96T257 -86V-61H267Q273 -61 275 -63L276 -81Q276 -94 273 -107T252 -120Q241 -120 231 -111Q229 -103 229 -97T229 -82Q229 -80 227 -80T223 -79Q225 -74 226 -70T229 -61H246ZM301 -63Q301 -72 301 -81T301 -100Q302 -102 305 -102T311 -102H313Q311 -107 310
-111T307 -120H283V-82Q283 -80 281 -80T277 -79Q279 -75 280 -71T283 -61H293Q299 -61 301 -63ZM335 -61Q335 -71 335 -80T335 -100Q335 -102 338 -102T344 -102H346V-104Q347 -109 345 -112T342 -120Q338 -120 335 -120T327 -121Q320 -121 316 -118L317 -83Q317
-79 313 -79Q315 -74 315 -70T318 -61H335ZM367 -61H385Q387 -67 389 -72T393 -85Q398 -81 399 -74T402 -61H421Q418 -76 413 -91T402 -120H387Q382 -106 377 -91T367 -61ZM424 -61H463Q461 -66 460 -70T458 -79Q456 -80 453 -80T448 -79Q444 -79 443 -81Q445 -84
450 -84T459 -83H462Q461 -87 460 -90T458 -98H443Q445 -101 450 -100T459 -100H462V-101Q462 -106 460 -110T456 -120H424V-81Q424 -79 422 -79T419 -79Q421 -75 422 -71T424 -61ZM514 -84Q514 -89 513 -94T506 -102Q506 -107 510 -110T514 -119V-120Q511 -121
506 -121Q500 -121 495 -119T489 -109Q487 -110 487 -112T487 -116Q487 -120 486 -120H469V-82Q469 -80 467 -80T465 -78Q465 -73 467 -70T471 -61H479Q493 -60 503 -63T514 -84ZM488 -89H490Q496 -89 495 -83V-81Q493 -81 492 -80T489 -79H488V-89ZM586 -61V-120H569L570
-82Q570 -80 568 -80T564 -79Q566 -74 567 -70T569 -61H586ZM614 -63Q616 -61 622 -61Q627 -61 632 -63T642 -68Q647 -76 651 -89Q649 -100 643 -110T623 -120Q609 -120 601 -111T592 -87Q592 -78 599 -71T614 -63ZM629 -81Q625 -79 621 -79Q617 -79 614 -81T610
-89Q610 -102 624 -102H625Q632 -97 632 -90Q632 -86 629 -81ZM674 -61Q677 -66 680 -70T685 -79Q687 -78 687 -74T687 -66Q687 -62 689 -61H705V-120H690Q686 -115 683 -109T676 -96Q673 -99 673 -105T674 -117V-120H657V-82Q657 -80 655 -80T651 -79Q653 -74
654 -70T657 -61H674ZM752 -63Q755 -60 760 -60Q765 -60 770 -63T780 -68Q783 -73 786 -79T789 -91Q789 -104 781 -111T760 -119Q746 -119 738 -111T730 -89Q730 -80 737 -72T752 -63ZM760 -102Q771 -102 771 -90Q771 -85 767 -82T759 -79Q755 -79 756 -81Q748
-82 748 -91Q748 -102 760 -102ZM811 -61Q815 -66 818 -70T823 -79Q825 -78 825 -74T824 -66Q824 -63 826 -61H843V-120H828Q826 -114 822 -109T815 -98Q812 -100 813 -106T814 -115L813 -118Q811 -120 805 -120H795V-82Q795 -80 793 -80T791 -77Q791 -72 793 -69T795
-61H811ZM508 -158Q507 -163 506 -168T503 -178H488Q490 -181 495 -180T503 -180H506Q506 -181 506 -181T507 -183Q507 -186 506 -189T504 -195Q502 -196 499 -196T493 -195Q489 -195 488 -197Q490 -199 496 -199T505 -198L508 -199Q506 -204 506 -208T503 -217H469V-181Q469
-179 467 -179T465 -176Q465 -174 467 -168T471 -159L477 -160Q484 -160 490 -159T504 -157L508 -158ZM553 -158Q551 -169 547 -178H532Q532 -183 538 -182T548 -181Q549 -181 549 -181T551 -182Q550 -190 545 -199H532V-217H514Q512 -210 513 -204T514 -189Q514
-184 512 -180T510 -174Q513 -172 513 -168T516 -159L522 -160Q529 -160 535 -159T548 -157L553 -158ZM715 -158Q713 -163 712 -171T702 -178V-217H683V-180Q683 -177 680 -177T675 -178H674Q674 -173 675 -169T677 -159L683 -160Q690 -160 696 -159T710 -157L715
-158ZM737 -219H731V-217Q727 -217 722 -216T717 -210Q720 -205 718 -199Q722 -197 722 -197Q726 -197 729 -199T737 -201L739 -200Q739 -197 735 -196T727 -192T719 -187T715 -176Q715 -166 724 -162T741 -158Q748 -158 756 -161V-164Q756 -168 755 -169T754 -176Q752
-178 751 -178Q748 -178 746 -177T740 -176Q736 -176 735 -178Q743 -180 751 -184T759 -199Q759 -206 752 -212T737 -219ZM813 -219H808V-217Q795 -216 788 -208T781 -187Q781 -174 790 -167T812 -159Q822 -159 830 -165Q828 -170 826 -173T823 -182Q819 -178 811
-178Q808 -178 805 -179T800 -184V-193Q800 -196 803 -197T809 -198Q813 -198 816 -197T823 -196Q824 -196 824 -197Q825 -201 826 -203T830 -210Q828 -215 823 -215T813 -219ZM80 -159H99Q100 -164 101 -169T102 -180Q104 -175 106 -170T108 -159H123Q125 -164
125 -169T128 -180Q132 -176 132 -170T134 -159H171V-162Q171 -167 172 -170T173 -178Q178 -176 178 -170T181 -159H195Q195 -165 197 -170T199 -180Q203 -176 203 -170T205 -159H242Q244 -164 244 -169T246 -180Q248 -175 249 -170T251 -159H266Q268 -164 269
-169T272 -180Q275 -176 275 -170T277 -159H294Q293 -174 289 -188T283 -217H264V-215Q265 -210 263 -206T261 -197Q257 -201 256 -206T255 -217H236Q233 -204 231 -192T223 -167Q215 -193 212 -217H194Q192 -212 191 -208T188 -199Q184 -202 184 -207T182 -217H164Q162
-203 159 -191T153 -165Q147 -177 146 -190T140 -217H121V-215Q122 -210 119 -206T117 -197Q114 -201 113 -206T112 -217H93Q91 -203 87 -189T80 -159ZM337 -159V-178H346Q349 -176 348 -171T348 -162V-159Q351 -160 353 -160T359 -159Q361 -159 363 -159T367 -161V-217H348V-197H339Q336
-199 336 -205T337 -214V-217H318V-184Q319 -183 319 -181Q319 -179 317 -179T315 -176Q315 -171 316 -168T318 -159H337ZM369 -159H387L393 -171Q395 -169 395 -166T398 -159H417Q415 -168 412 -174T406 -186T402 -199T402 -217H383Q383 -199 382 -192T379 -182T375
-175T369 -159ZM439 -206V-217H421V-180Q421 -178 419 -178T415 -178Q417 -173 418 -169T421 -159H430Q441 -159 452 -163T463 -182Q463 -193 452 -204H451Q447 -204 446 -205T439 -206ZM439 -187L441 -188Q445 -188 445 -183Q445 -178 441 -178H439V-187ZM584
-219V-217Q570 -217 563 -208T556 -185Q556 -174 565 -167T586 -160Q599 -160 607 -168T616 -189Q616 -200 606 -210T584 -219ZM592 -178Q590 -178 590 -178T587 -177Q575 -177 575 -189Q575 -193 579 -199Q581 -199 582 -199T585 -200Q595 -200 597 -187Q596 -185
595 -183T592 -178ZM640 -159Q641 -165 644 -169T650 -178Q652 -176 652 -171T651 -162V-159H670V-217H653Q650 -211 647 -205T638 -195V-217H622V-180Q622 -178 620 -178T616 -178Q618 -173 619 -169T622 -159H640ZM860 -219V-217Q849 -217 841 -209T833 -189Q833
-176 840 -168T862 -160Q873 -160 882 -167T892 -187Q892 -200 883 -210T860 -219ZM860 -200Q869 -200 873 -193V-190Q874 -183 870 -180T860 -178H856Q852 -182 852 -188Q852 -197 860 -200ZM897 -159H916Q918 -162 919 -165T925 -171Q928 -169 930 -166T934 -159H953V-217H934V-191Q934
-190 933 -190Q931 -190 930 -193T927 -199H926Q921 -199 921 -195T916 -189V-217H897V-181Q897 -179 895 -179T893 -176Q893 -172 895 -168T897 -159ZM303 -219Q295 -215 295 -208Q295 -199 305 -199Q314 -199 314 -208Q314 -219 303 -219ZM771 -219H769Q765 -219
763 -215T761 -208Q761 -198 771 -198Q775 -198 776 -201T780 -206V-209Q780 -214 777 -215T771 -219Z" />
<glyph unicode=":" glyph-name="colon" horiz-adv-x="477" d="M322 403Q302 403 285 410T255 430T234 460T226 497Q226 516 233 533T254 563T285 583T322 591Q341 591 358 584T389 564T409 534T417 497Q417 477 410 460T389 431T359 411T322 403ZM322 -24Q302
-24 285 -17T255 3T234 32T226 69Q226 89 233 106T254 136T285 156T322 163Q341 163 358 156T389 136T409 106T417 69Q417 49 410 33T389 3T359 -17T322 -24Z" />
<glyph unicode=";" glyph-name="semicolon" horiz-adv-x="472" d="M321 403Q301 403 284 410T254 430T234 460T226 497Q226 516 233 533T254 563T284 583T321 591Q340 591 357 584T388 564T408 534T416 497Q416 477 409 460T388 431T358 411T321 403ZM336 -156L232
-129L252 121L390 87L336 -156Z" />
<glyph unicode="&lt;" glyph-name="less" horiz-adv-x="768" d="M641 37L0 394L641 751L736 607L353 394L736 181L641 37Z" />
<glyph unicode="=" glyph-name="equal" horiz-adv-x="553" d="M86 427V561H491V427H86ZM86 156V290H491V156H86Z" />
<glyph unicode="&gt;" glyph-name="greater" horiz-adv-x="729" d="M87 37L-8 181L375 394L-8 607L87 751L729 394L87 37Z" />
<glyph unicode="?" glyph-name="question" horiz-adv-x="761" d="M501 290V231H318V327Q318 372 346 407T417 455Q425 457 433 459T449 464Q484 474 506 502T529 567Q529 590 520 610T496 645T461 669T417 678Q372 678 341 648T306 573H123Q124 633 148 685T212
776T304 837T417 859Q478 859 531 836T625 772T688 678T711 563Q711 517 695 473T651 393T584 329T501 290ZM410 -24Q390 -24 373 -17T343 3T323 32T315 69Q315 89 322 106T343 136T373 156T410 164Q429 164 446 157T477 137T497 107T505 69Q505 49 498 33T477
3T447 -17T410 -24Z" />
<glyph unicode="@" glyph-name="at" horiz-adv-x="838" d="M680 171L685 173L748 53L744 51L680 171ZM454 187Q422 187 391 192T335 212T295 250T279 312Q279 349 296 374T340 413T400 433T464 438V440Q464 456 457 470T430 485Q413 485 406 469T399 439L285 443Q287
474 297 502T327 551T372 584T430 597Q488 597 518 572T562 509T575 424T576 334Q595 341 607 355T627 388T636 425T639 463Q639 506 626 542T587 604T526 645T447 660Q391 660 343 638T261 578T207 491T187 386Q187 322 211 273T275 191T370 140T485 123Q537 123
587 135T683 173L749 53Q686 20 618 4T480 -13Q391 -13 313 14T175 93T82 218T48 385Q48 468 78 543T161 674T287 764T445 798Q517 798 578 773T684 703T753 597T778 464Q778 381 756 328T691 243T589 199T454 187ZM463 326Q455 327 449 327T434 328Q429 328 422
328T408 326T397 320T392 309Q392 305 397 303T410 300T424 299T434 299Q441 299 448 299T463 300V326Z" />
<glyph unicode="A" glyph-name="A" horiz-adv-x="837" d="M576 0L536 107H297L257 0H38L325 776H508L795 0H576ZM417 492L355 287H478L417 492Z" />
<glyph unicode="B" glyph-name="B" horiz-adv-x="728" d="M490 0H50V776H456Q478 776 501 771T547 755T589 730T623 699Q648 669 661 632T675 556Q675 511 657 470T605 397Q627 383 645 363T677 319T697 269T705 217Q705 173 689 134T643 65T574 18T490 0ZM393
620H254V462H393Q425 462 448 485T472 541Q472 573 449 596T393 620ZM400 321H254V164H400Q433 164 456 187T479 243Q479 275 456 298T400 321Z" />
<glyph unicode="C" glyph-name="C" horiz-adv-x="723" d="M438 -24Q352 -24 278 8T148 97T60 228T28 387Q28 471 60 545T147 676T277 765T438 798Q516 798 588 770T721 687L561 547Q503 588 439 588Q397 588 361 572T299 528T258 464T243 387Q243 346 258 310T299
246T360 202T438 185Q486 185 527 207T600 269L765 135Q703 59 619 18T438 -24Z" />
<glyph unicode="D" glyph-name="D" horiz-adv-x="855" d="M397 0H50V776H397Q478 776 549 746T673 663T756 539T787 388Q787 308 757 237T673 114T549 31T397 0ZM373 587H254V189H373Q415 189 451 204T515 247T557 310T573 388Q573 429 558 465T515 529T452 571T373 587Z" />
<glyph unicode="E" glyph-name="E" horiz-adv-x="708" d="M45 0V776H664V591H247V480H640V295H247V184H664V0H45Z" />
<glyph unicode="F" glyph-name="F" horiz-adv-x="669" d="M239 585V479H595V290H239V0H32V760L48 776H643V585H239Z" />
<glyph unicode="G" glyph-name="G" horiz-adv-x="873" d="M643 0V22Q553 -24 453 -24Q366 -24 292 8T162 95T76 225T45 386Q45 470 76 545T163 676T293 765T454 798Q546 798 628 759T772 647L602 534Q571 565 534 581T454 598Q410 598 373 581T308 534T265 467T249
385Q249 342 264 303T308 235T373 189T455 171Q502 171 544 192T616 251H479V438H820V0H643Z" />
<glyph unicode="H" glyph-name="H" horiz-adv-x="842" d="M548 0V293H273V0H58V776H273V480H548V776H765V0H548Z" />
<glyph unicode="I" glyph-name="I" horiz-adv-x="336" d="M53 0V776H262V0H53Z" />
<glyph unicode="J" glyph-name="J" horiz-adv-x="648" d="M588 418Q588 326 553 246T456 105T314 11T140 -24Q117 -24 94 -22T43 -14L83 185Q98 182 110 181T133 180Q184 180 229 199T309 252T362 330T382 426V776H588V418Z" />
<glyph unicode="K" glyph-name="K" horiz-adv-x="751" d="M409 409L716 0H464L251 261V0H38V776H251V515L464 776H726L409 409Z" />
<glyph unicode="L" glyph-name="L" horiz-adv-x="663" d="M26 0V776H241V192H649V0H26Z" />
<glyph unicode="M" glyph-name="M" horiz-adv-x="914" d="M636 0V399L470 125Q467 119 460 117T448 115Q442 115 435 117T425 125L259 399V0H56V776H246Q256 776 263 767L447 460L632 767Q639 776 648 776H839V0H636Z" />
<glyph unicode="N" glyph-name="N" horiz-adv-x="804" d="M527 1L258 415V1H51V776H257L527 358V776H735V1H527Z" />
<glyph unicode="O" glyph-name="O" horiz-adv-x="936" d="M464 -24Q378 -24 303 8T172 95T84 226T51 386Q51 471 83 546T172 676T303 764T464 797Q549 797 624 765T756 677T844 546T877 386Q877 301 845 226T756 96T625 8T464 -24ZM464 599Q420 599 383 582T318
535T276 468T260 386Q260 344 275 305T318 237T382 191T464 173Q508 173 545 190T610 237T652 305T668 386Q668 429 653 467T610 535T546 581T464 599Z" />
<glyph unicode="P" glyph-name="P" horiz-adv-x="702" d="M387 241H246V0H38V776H387Q443 776 494 757T585 704T648 622T672 517Q672 459 649 409T586 322T495 263T387 241ZM372 604H251V436H372Q390 436 406 442T434 460T453 487T460 520Q460 538 453 553T434
579T406 597T372 604Z" />
<glyph unicode="Q" glyph-name="Q" horiz-adv-x="942" d="M690 0L673 31Q627 2 574 -11T467 -24Q404 -24 343 -7T230 46Q188 75 155 113T98 195T63 289T50 389Q50 474 83 548T172 678T303 766T464 798Q549 798 624 766T756 677T844 546T877 386Q877 324 859 266T806
156L888 0H690ZM467 591Q424 591 386 575T320 530T276 463T260 381Q260 337 276 299T320 231T386 186T469 169Q499 169 528 177T583 204L550 269H644Q675 322 675 380Q675 423 659 461T615 528T549 574T467 591Z" />
<glyph unicode="R" glyph-name="R" horiz-adv-x="794" d="M523 0L388 240H257L258 0H44V776H433Q461 776 490 766T546 738T596 698T635 653Q655 624 665 586T676 512Q676 454 649 404T574 320L756 0H523ZM372 604H251V436H372Q390 436 406 442T434 460T453 487T460
520Q460 538 453 553T434 579T406 597T372 604Z" />
<glyph unicode="S" glyph-name="S" horiz-adv-x="772" d="M354 -24Q276 -24 200 -6T53 46Q51 46 43 50Q35 55 35 57Q35 58 39 65T49 82T63 106T79 134Q96 162 111 187T132 223Q145 218 157 211Q211 184 265 170T381 155Q398 155 417 156T453 164T479 182T490 218Q490
229 484 237T469 252T450 264T431 272Q410 280 388 284T344 293Q315 300 287 306T233 320Q206 328 182 337T136 360Q93 386 68 429T42 545Q42 570 47 595T64 644Q86 690 121 720T198 767T288 791T382 798Q459 798 534 780T677 719Q652 677 629 637T581 554Q523
582 469 600T351 618Q336 618 320 617T289 609T266 592T257 561Q257 547 263 537Q270 526 288 518T334 502Q361 495 393 489T460 473Q494 464 528 453T593 425T648 386T686 332Q697 309 701 283T705 230Q705 154 674 105T593 28T480 -12T354 -24Z" />
<glyph unicode="T" glyph-name="T" horiz-adv-x="741" d="M688 584H475V0H264V584H51L37 598V776H702V598L688 584Z" />
<glyph unicode="U" glyph-name="U" horiz-adv-x="768" d="M700 284Q700 231 683 184T634 99T559 34T466 -9Q444 -16 421 -20T375 -24Q352 -24 330 -20T285 -9Q235 6 192 33T118 99T69 184T51 284V776H267V297Q267 275 276 257T300 225T334 204T375 196Q397 196
416 203T451 224T475 256T484 297V776H700V284Z" />
<glyph unicode="V" glyph-name="V" horiz-adv-x="821" d="M503 0H316L27 774H259L409 373L559 774H791L503 0Z" />
<glyph unicode="W" glyph-name="W" horiz-adv-x="1229" d="M902 0H736L612 335L489 0H323L37 774H261L406 382L551 774H674L819 382L964 774H1188L902 0Z" />
<glyph unicode="X" glyph-name="X" horiz-adv-x="846" d="M560 0L426 201H416L282 0H37L298 394L44 776H290L416 586H426L552 776H798L544 394L806 0H560Z" />
<glyph unicode="Y" glyph-name="Y" horiz-adv-x="780" d="M499 267V0H278V267L7 775H251L389 505L526 775H770L499 267Z" />
<glyph unicode="Z" glyph-name="Z" horiz-adv-x="746" d="M68 0V35L370 577H45V776H690V741L388 199H697V0H68Z" />
<glyph unicode="[" glyph-name="bracketleft" horiz-adv-x="400" d="M45 -172V963H351V790H220V1H349V-172H45Z" />
<glyph unicode="\" glyph-name="backslash" horiz-adv-x="773" d="M596 -24L-2 776H221L825 -24H596Z" />
<glyph unicode="]" glyph-name="bracketright" horiz-adv-x="438" d="M59 -172V1H187V790H57V963H362V-172H59Z" />
<glyph unicode="^" glyph-name="asciicircum" horiz-adv-x="721" d="M363 951V951L504 894L500 810L362 864L222 810L221 894L362 951H363Z" />
<glyph unicode="_" glyph-name="underscore" horiz-adv-x="817" d="M55 0V133H742V0H55Z" />
<glyph unicode="`" glyph-name="grave" horiz-adv-x="528" d="M-19 839V921H565V839H-19Z" />
<glyph unicode="a" glyph-name="a" horiz-adv-x="712" d="M481 0L448 89H260L227 0H33L274 659H434L675 0H481ZM354 380L312 252H396L354 380Z" />
<glyph unicode="b" glyph-name="b" horiz-adv-x="619" d="M412 0H44V659H384Q403 659 423 654T462 641T498 620T527 593Q548 567 559 535T571 470Q571 432 558 398T518 338Q553 314 570 272T588 188Q588 150 575 116T539 56T483 15T412 0ZM332 514H227V399H332Q356
399 372 416T389 457Q389 480 373 497T332 514ZM338 267H227V151H338Q362 151 379 168T396 209Q396 233 379 250T338 267Z" />
<glyph unicode="c" glyph-name="c" horiz-adv-x="614" d="M371 -20Q299 -20 236 8T127 83T54 194T27 329Q27 400 53 463T126 574T236 650T371 678Q437 678 498 654T615 578L472 452Q420 489 372 489Q339 489 311 476T263 441T230 390T218 329Q218 297 229 268T261
216T310 181T371 168Q447 168 503 242L650 120Q594 51 523 16T371 -20Z" />
<glyph unicode="d" glyph-name="d" horiz-adv-x="726" d="M342 0H45V659H342Q410 659 470 633T575 563T646 458T672 330Q672 262 646 202T575 97T470 26T342 0ZM323 488H232V172H323Q356 172 384 184T434 218T468 268T481 330Q481 363 469 391T435 441T385 475T323 488Z" />
<glyph unicode="e" glyph-name="e" horiz-adv-x="602" d="M41 0V659H564V494H215V413H545V247H215V166H564V0H41Z" />
<glyph unicode="f" glyph-name="f" horiz-adv-x="569" d="M214 487V404H513V230H214V0H30V642L47 659H545V487H214Z" />
<glyph unicode="g" glyph-name="g" horiz-adv-x="742" d="M533 0V14Q462 -20 384 -20Q311 -20 248 7T139 81T67 191T41 328Q41 400 67 463T140 575T250 651T385 679Q463 679 533 645T659 544L506 441Q452 497 386 497Q351 497 322 483T271 446T237 392T224 327Q224
293 236 263T270 209T321 172T386 158Q419 158 449 171T502 209H398V379H695V0H533Z" />
<glyph unicode="h" glyph-name="h" horiz-adv-x="716" d="M454 0V238H245V0H48V659H245V416H454V659H651V0H454Z" />
<glyph unicode="i" glyph-name="i" horiz-adv-x="285" d="M38 0V659H231V0H38Z" />
<glyph unicode="j" glyph-name="j" horiz-adv-x="551" d="M124 -20Q105 -20 85 -18T37 -10L72 168Q89 165 99 164T119 163Q159 163 195 178T258 221T300 284T316 362V659H496V354Q496 276 467 208T388 90T269 10T124 -20Z" />
<glyph unicode="k" glyph-name="k" horiz-adv-x="639" d="M386 0L223 202V0H34V659H223V457L386 659H617L351 330L617 0H386Z" />
<glyph unicode="l" glyph-name="l" horiz-adv-x="564" d="M25 0V659H210V167H552V0H25Z" />
<glyph unicode="m" glyph-name="m" horiz-adv-x="777" d="M527 0V308L407 110Q402 102 394 100T380 97Q375 97 367 99T354 110L234 308V0H48V659H214Q227 659 236 647L380 407L525 647Q532 659 546 659H712V0H527Z" />
<glyph unicode="n" glyph-name="n" horiz-adv-x="683" d="M437 0L234 319V0H48V659H230L433 338V659H619V0H437Z" />
<glyph unicode="o" glyph-name="o" horiz-adv-x="796" d="M395 -20Q323 -20 259 7T148 82T73 193T45 329Q45 401 72 464T147 575T259 650T395 678Q467 678 531 651T642 576T717 465T745 329Q745 257 718 193T643 82T531 8T395 -20ZM395 497Q361 497 332 484T281
447T247 394T234 329Q234 295 246 265T280 211T331 174T395 160Q429 160 458 173T509 210T543 264T555 329Q555 363 543 393T510 447T459 483T395 497Z" />
<glyph unicode="p" glyph-name="p" horiz-adv-x="638" d="M314 197H198V0H9V659H314Q363 659 408 642T489 593T545 519T566 427Q566 377 545 335T490 263T409 215T314 197ZM308 499H201V372H308Q334 372 352 390T370 433Q370 458 352 478T308 499Z" />
<glyph unicode="q" glyph-name="q" horiz-adv-x="801" d="M577 0L564 22Q526 0 484 -10T397 -20Q344 -20 293 -6T196 39Q124 89 84 165T44 330Q44 402 71 465T147 576T258 651T394 678Q467 678 530 651T641 576T716 464T744 328Q744 277 730 229T687 137L759 0H577ZM397
490Q363 490 333 477T281 442T247 389T234 324Q234 289 246 259T281 206T333 170T398 156Q421 156 442 162T482 180L451 240H538Q560 277 560 323Q560 357 548 387T513 440T461 476T397 490Z" />
<glyph unicode="r" glyph-name="r" horiz-adv-x="674" d="M455 0L351 201H234V0H41V659H385Q408 659 432 653T480 635T522 607T556 571Q573 546 582 517T591 458Q591 410 569 368T509 296L663 0H455ZM331 505H234V380H331Q357 380 376 398T395 443Q395 469 376
487T331 505Z" />
<glyph unicode="s" glyph-name="s" horiz-adv-x="656" d="M301 -21Q236 -21 173 -5T51 39Q50 39 48 40T43 42Q38 45 36 48T33 54Q33 55 44 75T70 122Q84 145 96 166T116 201Q127 196 132 194T143 188Q187 166 231 154T323 142Q330 142 336 142T350 143Q365 143
377 147Q389 152 397 161T406 188Q406 201 396 208T375 221Q368 224 362 226Q345 233 328 236T292 244Q268 249 245 254T200 266Q177 273 157 281T119 301Q82 324 60 361T38 461Q38 505 57 546Q76 586 105 611T171 652T246 672T324 678Q388 678 451 662T576 608Q553
569 533 534T490 459Q439 485 395 499T299 514Q289 514 277 514T254 509T236 497T228 474Q228 465 233 457Q237 449 250 444T287 432Q309 426 335 421T390 407Q418 400 447 391T501 367T547 333T580 286Q589 266 592 243T596 198Q596 132 570 90T501 23T406 -11T301
-21Z" />
<glyph unicode="t" glyph-name="t" horiz-adv-x="630" d="M578 488H408V0H220V488H50L34 504V659H594V504L578 488Z" />
<glyph unicode="u" glyph-name="u" horiz-adv-x="653" d="M594 244Q594 198 579 158T538 85T475 28T396 -8Q378 -13 359 -16T319 -20Q299 -20 280 -17T242 -8Q200 4 164 28T101 84T59 157T44 244V659H239V254Q239 238 245 225T263 201T288 185T319 179Q335 179
349 185T375 201T392 224T399 254V659H594V244Z" />
<glyph unicode="v" glyph-name="v" horiz-adv-x="698" d="M426 0H269L29 659H225L348 321L471 659H666L426 0Z" />
<glyph unicode="w" glyph-name="w" horiz-adv-x="1045" d="M767 0H619L521 268L422 0H274L30 659H231L348 343L465 659H577L693 343L810 659H1011L767 0Z" />
<glyph unicode="x" glyph-name="x" horiz-adv-x="719" d="M469 0L358 167L248 0H27L248 335L33 659H254L358 502L462 659H683L469 335L690 0H469Z" />
<glyph unicode="y" glyph-name="y" horiz-adv-x="663" d="M426 228V0H235V228L20 659H232L331 452L429 659H642L426 228Z" />
<glyph unicode="z" glyph-name="z" horiz-adv-x="634" d="M57 0V41L299 476H38V659H586V618L345 183H592V0H57Z" />
<glyph unicode="{" glyph-name="braceleft" horiz-adv-x="406" d="M317 -114Q252 -114 212 -88T148 -20T111 76T89 185T68 293T34 385Q56 424 67 476T88 584T111 694T148 790T212 859T317 885Q339 885 367 880L341 734Q334 735 328 736T314 737Q298 737 286 721T264
680T247 624T236 564T228 510T222 472Q219 450 215 428T203 385Q211 365 216 332T226 259T238 180T256 108T284 56T328 35Q336 35 341 36L367 -109Q339 -114 317 -114Z" />
<glyph unicode="|" glyph-name="bar" horiz-adv-x="342" d="M136 -24V798H292V-24H136Z" />
<glyph unicode="}" glyph-name="braceright" horiz-adv-x="448" d="M100 -114Q77 -114 49 -109L75 36Q80 35 88 35Q114 35 131 55T160 108T177 180T189 259T200 331T213 385Q205 405 201 427T194 472Q192 485 189 509T182 563T170 623T154 679T131 721T102 737Q95
737 89 736T75 734L49 880Q77 885 100 885Q164 885 204 859T268 791T305 694T327 585T348 477T382 385Q360 345 349 293T328 186T306 77T269 -19T205 -88T100 -114Z" />
<glyph unicode="~" glyph-name="asciitilde" horiz-adv-x="413" d="M342 821Q322 821 304 831T270 853T237 876T206 886Q191 886 184 882T171 872T162 857T149 840Q144 840 136 846T119 860T106 878T100 894Q100 906 112 920T132 942Q146 956 163 967T201 978Q222
978 240 968T275 946T308 923T339 913Q361 913 374 930T398 963Q410 952 421 942T443 917Q440 901 430 884T407 853T376 830T342 821Z" />
</font>
</defs>
</svg>
